<svg width="37" height="37" viewBox="0 0 37 37" fill="none" xmlns="http://www.w3.org/2000/svg">
<g id="mastercard-full_svgrepo.com" clip-path="url(#clip0_2439_5217)">
<path id="Vector" d="M34.4496 6.0603H2.55307C1.31995 6.0603 0.320312 7.05994 0.320312 8.29306V28.7069C0.320312 29.94 1.31995 30.9396 2.55307 30.9396H34.4496C35.6827 30.9396 36.6824 29.94 36.6824 28.7069V8.29306C36.6824 7.05994 35.6827 6.0603 34.4496 6.0603Z" fill="white" stroke="#F3F3F3" strokeWidth="1.03448"/>
<path id="Vector_2" fill-rule="evenodd" clip-rule="evenodd" d="M13.5546 25.4474V26.3895V27.3316H13.1417V27.1029C13.0107 27.2726 12.812 27.379 12.5419 27.379C12.0094 27.379 11.5919 26.9653 11.5919 26.3895C11.5919 25.8142 12.0094 25.4 12.5419 25.4C12.812 25.4 13.0107 25.5065 13.1417 25.6762V25.4474H13.5546ZM12.5933 25.7863C12.2358 25.7863 12.0171 26.0583 12.0171 26.3895C12.0171 26.7207 12.2358 26.9928 12.5933 26.9928C12.9348 26.9928 13.1654 26.7324 13.1654 26.3895C13.1654 26.0466 12.9348 25.7863 12.5933 25.7863ZM27.5087 26.3895C27.5087 26.0583 27.7274 25.7863 28.0849 25.7863C28.4269 25.7863 28.657 26.0466 28.657 26.3895C28.657 26.7324 28.4269 26.9928 28.0849 26.9928C27.7274 26.9928 27.5087 26.7207 27.5087 26.3895ZM29.0467 24.6907V26.3895V27.3316H28.6334V27.1029C28.5023 27.2726 28.3036 27.379 28.0335 27.379C27.501 27.379 27.0835 26.9653 27.0835 26.3895C27.0835 25.8142 27.501 25.4 28.0335 25.4C28.3036 25.4 28.5023 25.5065 28.6334 25.6762V24.6907H29.0467ZM18.6804 25.7669C18.9464 25.7669 19.1173 25.9324 19.161 26.2239H18.1756C18.2196 25.9519 18.3861 25.7669 18.6804 25.7669ZM17.7426 26.3895C17.7426 25.802 18.1319 25.4 18.6885 25.4C19.2206 25.4 19.5862 25.802 19.5903 26.3895C19.5903 26.4445 19.5862 26.496 19.5821 26.547H18.1719C18.2315 26.8863 18.4739 27.0086 18.7399 27.0086C18.9304 27.0086 19.1333 26.9373 19.2924 26.8114L19.4948 27.1151C19.2643 27.3082 19.0023 27.379 18.7163 27.379C18.1478 27.379 17.7426 26.9888 17.7426 26.3895ZM23.6746 26.3895C23.6746 26.0583 23.8933 25.7863 24.2508 25.7863C24.5923 25.7863 24.8229 26.0466 24.8229 26.3895C24.8229 26.7324 24.5923 26.9928 24.2508 26.9928C23.8933 26.9928 23.6746 26.7207 23.6746 26.3895ZM25.2121 25.4474V26.3895V27.3316H24.7992V27.1029C24.6678 27.2726 24.4695 27.379 24.1994 27.379C23.6668 27.379 23.2493 26.9653 23.2493 26.3895C23.2493 25.8142 23.6668 25.4 24.1994 25.4C24.4695 25.4 24.6678 25.5065 24.7992 25.6762V25.4474H25.2121ZM21.3425 26.3895C21.3425 26.9612 21.7436 27.379 22.3557 27.379C22.6418 27.379 22.8323 27.3159 23.0388 27.1543L22.8405 26.8231C22.6855 26.9337 22.5226 26.9928 22.3435 26.9928C22.0137 26.9888 21.7714 26.7523 21.7714 26.3895C21.7714 26.0268 22.0137 25.7903 22.3435 25.7863C22.5226 25.7863 22.6855 25.8453 22.8405 25.9559L23.0388 25.6247C22.8323 25.4631 22.6418 25.4 22.3557 25.4C21.7436 25.4 21.3425 25.8178 21.3425 26.3895ZM26.1658 25.6762C26.2731 25.5105 26.4282 25.4 26.6665 25.4C26.7501 25.4 26.8693 25.4158 26.9607 25.4514L26.8334 25.8377C26.746 25.802 26.6587 25.7903 26.5751 25.7903C26.3049 25.7903 26.1699 25.9635 26.1699 26.2754V27.3316H25.7565V25.4474H26.1658V25.6762ZM15.597 25.5972C15.3983 25.4672 15.1245 25.4 14.8225 25.4C14.3414 25.4 14.0317 25.6288 14.0317 26.0033C14.0317 26.3106 14.2623 26.5 14.687 26.5592L14.8821 26.5867C15.1086 26.6183 15.2155 26.6774 15.2155 26.7839C15.2155 26.9296 15.0645 27.0126 14.7825 27.0126C14.4965 27.0126 14.2901 26.922 14.1509 26.8154L13.9562 27.1345C14.1827 27.3001 14.4687 27.379 14.7785 27.379C15.3269 27.379 15.6448 27.1227 15.6448 26.764C15.6448 26.4328 15.3946 26.2595 14.9813 26.2005L14.7866 26.1725C14.6079 26.149 14.4647 26.1138 14.4647 25.9875C14.4647 25.8494 14.5997 25.7669 14.8262 25.7669C15.0686 25.7669 15.3032 25.8575 15.4183 25.9284L15.597 25.5972ZM20.4248 25.6762C20.5317 25.5105 20.6868 25.4 20.925 25.4C21.0087 25.4 21.1279 25.4158 21.2193 25.4514L21.0919 25.8377C21.0047 25.802 20.9173 25.7903 20.8336 25.7903C20.5635 25.7903 20.4285 25.9635 20.4285 26.2754V27.3316H20.0155V25.4474H20.4248V25.6762ZM17.401 25.4474H16.7257V24.8757H16.3083V25.4474H15.9231V25.8219H16.3083V26.6815C16.3083 27.1187 16.4792 27.379 16.9677 27.379C17.1468 27.379 17.3533 27.324 17.4843 27.2333L17.3651 26.8822C17.2419 26.9531 17.1068 26.9888 16.9995 26.9888C16.793 26.9888 16.7257 26.8624 16.7257 26.6733V25.8219H17.401V25.4474ZM11.2267 26.149V27.3316H10.8092V26.283C10.8092 25.9635 10.6742 25.7863 10.3922 25.7863C10.118 25.7863 9.92743 25.96 9.92743 26.2871V27.3316H9.50997V26.283C9.50997 25.9635 9.37129 25.7863 9.09704 25.7863C8.81463 25.7863 8.63186 25.96 8.63186 26.2871V27.3316H8.21484V25.4474H8.62822V25.6797C8.7833 25.4591 8.98157 25.4 9.18437 25.4C9.4745 25.4 9.681 25.5264 9.81197 25.7352C9.98702 25.4709 10.2371 25.3959 10.4796 25.4C10.9407 25.4041 11.2267 25.7036 11.2267 26.149Z" fill="#231F20"/>
<path id="Vector_3" d="M21.7194 22.2456H15.4609V11.0862H21.7194V22.2456Z" fill="#FF5F00"/>
<path id="Vector_4" d="M15.8563 16.666C15.8563 14.4023 16.9245 12.3858 18.588 11.0863C17.3715 10.136 15.8362 9.56885 14.1677 9.56885C10.2177 9.56885 7.01562 12.7463 7.01562 16.666C7.01562 20.5857 10.2177 23.7632 14.1677 23.7632C15.8362 23.7632 17.3715 23.196 18.588 22.2458C16.9245 20.9463 15.8563 18.9298 15.8563 16.666Z" fill="#EB001B"/>
<path id="Vector_5" d="M30.1627 16.666C30.1627 20.5857 26.9607 23.7632 23.0106 23.7632C21.3421 23.7632 19.8068 23.196 18.5898 22.2458C20.2538 20.9463 21.3221 18.9298 21.3221 16.666C21.3221 14.4023 20.2538 12.3858 18.5898 11.0863C19.8068 10.136 21.3421 9.56885 23.0106 9.56885C26.9607 9.56885 30.1627 12.7463 30.1627 16.666Z" fill="#F79E1B"/>
</g>
<defs>
<clipPath id="clip0_2439_5217">
<rect width="37" height="37" fill="white"/>
</clipPath>
</defs>
</svg>
