<svg width="20" height="18" viewBox="0 0 20 18" fill="none" xmlns="http://www.w3.org/2000/svg">
<path id="Vector" d="M10.7082 17.5C6.35897 17.5 2.81996 14.1757 2.81996 10.0903C2.81996 6.00493 6.35897 2.6806 10.7082 2.6806C13.1803 2.6806 15.4894 3.76368 16.9822 5.60202L18.0476 5.13991C16.3472 2.9131 13.6507 1.60185 10.7097 1.60185C5.79784 1.60185 1.78838 5.30165 1.67462 9.88812C1.67154 9.99932 1.57623 10.0903 1.45785 10.0903H0.718375C0.596923 10.0903 0.496994 9.99643 0.500069 9.88235C0.618446 4.68935 5.15214 0.5 10.7082 0.5C14.2764 0.5 17.5249 2.20693 19.4035 5.0677C19.4558 5.14713 19.4927 5.23811 19.4988 5.33197C19.5142 5.56881 19.3743 5.7782 19.1591 5.87207L17.0314 6.79341C16.77 6.90605 16.4579 6.82518 16.2981 6.59845C15.0451 4.8352 12.9543 3.78245 10.7066 3.78245C7.00313 3.78245 3.99143 6.6129 3.99143 10.0903C3.99143 13.5677 7.00467 16.3981 10.7066 16.3981C12.7221 16.3981 14.6116 15.5505 15.8845 14.1035L14.7976 13.6327C13.6461 14.8067 12.0057 15.4248 10.2746 15.3021C7.52584 15.1071 5.31664 12.9958 5.1506 10.4123C4.95536 7.3826 7.52276 4.85975 10.7066 4.85975C11.7182 4.85975 12.7098 5.11825 13.5738 5.6078C13.8183 5.74643 13.9244 6.02803 13.8229 6.27931L12.9727 8.36748C12.9328 8.46712 12.8666 8.55955 12.7744 8.62164C12.5453 8.77905 12.2456 8.76028 12.0426 8.60143C11.4507 8.13209 10.6006 7.99779 9.84418 8.31983C9.15852 8.61154 8.69116 9.24839 8.64043 9.95455C8.55895 11.0882 9.51673 12.0355 10.7066 12.0355C11.1294 12.0355 11.543 11.9142 11.8873 11.6889C11.9796 11.6297 12.1041 11.6456 12.1748 11.725L12.6514 12.2565C12.7329 12.3474 12.716 12.4861 12.613 12.5554C12.0611 12.9323 11.3923 13.1374 10.7051 13.1374C8.91562 13.1374 7.46127 11.7698 7.46127 10.0903C7.46127 8.41081 8.91715 7.04324 10.7051 7.04324C11.2017 7.04324 11.689 7.1501 12.1287 7.35228L12.5407 6.3414C11.9673 6.09302 11.3416 5.96305 10.7051 5.96305C8.20381 5.96305 6.18525 7.93569 6.31747 10.3112C6.43431 12.4052 8.25916 14.1121 10.4899 14.2118C11.9365 14.2768 13.2956 13.6847 14.1811 12.6117C14.3456 12.4124 14.6392 12.3532 14.8821 12.4586L17.0114 13.38C17.1052 13.4204 17.1913 13.4782 17.2528 13.5562C17.4065 13.7511 17.4065 14.0053 17.2712 14.1944C15.7999 16.2653 13.3448 17.5 10.7051 17.5H10.7082Z" fill="white"/>
</svg>
