<svg width="52" height="52" viewBox="0 0 52 52" fill="none" xmlns="http://www.w3.org/2000/svg">
<path id="Vector" d="M25.6941 0C11.5367 0 0 11.5367 0 25.6941C0 39.8516 11.5367 51.3883 25.6941 51.3883C39.8516 51.3883 51.3883 39.8516 51.3883 25.6941C51.3883 11.5367 39.8516 0 25.6941 0ZM35.9718 27.6212H27.6212V35.9718C27.6212 37.0252 26.7476 37.8988 25.6941 37.8988C24.6407 37.8988 23.7671 37.0252 23.7671 35.9718V27.6212H15.4165C14.363 27.6212 13.4894 26.7476 13.4894 25.6941C13.4894 24.6407 14.363 23.7671 15.4165 23.7671H23.7671V15.4165C23.7671 14.363 24.6407 13.4894 25.6941 13.4894C26.7476 13.4894 27.6212 14.363 27.6212 15.4165V23.7671H35.9718C37.0252 23.7671 37.8988 24.6407 37.8988 25.6941C37.8988 26.7476 37.0252 27.6212 35.9718 27.6212Z" fill="#9CA3AF"/>
</svg>
