<svg width="12" height="12" viewBox="0 0 12 12" fill="none" xmlns="http://www.w3.org/2000/svg">
  <mask id="path-1-inside-1_1049_3443" fill="white">
    <path fill-rule="evenodd" clip-rule="evenodd"
      d="M5.99979 2.25C6.81028 2.25031 7.59884 2.5132 8.24739 2.99928C8.89593 3.48536 9.36954 4.16848 9.59727 4.94631C9.825 5.72414 9.7946 6.55482 9.51063 7.31392C9.22665 8.07303 8.70438 8.7197 8.02204 9.15708C7.33971 9.59446 6.53403 9.799 5.7257 9.74007C4.91736 9.68115 4.14987 9.36192 3.53818 8.8302C2.92649 8.29849 2.50353 7.58291 2.33264 6.79065C2.16176 5.99838 2.25216 5.17208 2.59029 4.4355C2.6271 4.34595 2.62784 4.24563 2.59236 4.15554C2.55688 4.06546 2.48793 3.99258 2.39994 3.95217C2.31196 3.91177 2.21175 3.90696 2.1203 3.93875C2.02885 3.97054 1.95324 4.03648 1.90929 4.12275C1.50355 5.00669 1.39512 5.9983 1.60024 6.94904C1.80536 7.89978 2.31299 8.75847 3.0471 9.39649C3.7812 10.0345 4.70226 10.4175 5.67231 10.4881C6.64236 10.5587 7.60917 10.3132 8.42794 9.78819C9.24671 9.26321 9.87335 8.48709 10.214 7.57608C10.5546 6.66507 10.591 5.66822 10.3175 4.73483C10.0441 3.80145 9.47557 2.98178 8.69718 2.39862C7.91879 1.81545 6.97241 1.50017 5.99979 1.5V2.25Z" />
  </mask>
  <path fill-rule="evenodd" clip-rule="evenodd"
    d="M5.99979 2.25C6.81028 2.25031 7.59884 2.5132 8.24739 2.99928C8.89593 3.48536 9.36954 4.16848 9.59727 4.94631C9.825 5.72414 9.7946 6.55482 9.51063 7.31392C9.22665 8.07303 8.70438 8.7197 8.02204 9.15708C7.33971 9.59446 6.53403 9.799 5.7257 9.74007C4.91736 9.68115 4.14987 9.36192 3.53818 8.8302C2.92649 8.29849 2.50353 7.58291 2.33264 6.79065C2.16176 5.99838 2.25216 5.17208 2.59029 4.4355C2.6271 4.34595 2.62784 4.24563 2.59236 4.15554C2.55688 4.06546 2.48793 3.99258 2.39994 3.95217C2.31196 3.91177 2.21175 3.90696 2.1203 3.93875C2.02885 3.97054 1.95324 4.03648 1.90929 4.12275C1.50355 5.00669 1.39512 5.9983 1.60024 6.94904C1.80536 7.89978 2.31299 8.75847 3.0471 9.39649C3.7812 10.0345 4.70226 10.4175 5.67231 10.4881C6.64236 10.5587 7.60917 10.3132 8.42794 9.78819C9.24671 9.26321 9.87335 8.48709 10.214 7.57608C10.5546 6.66507 10.591 5.66822 10.3175 4.73483C10.0441 3.80145 9.47557 2.98178 8.69718 2.39862C7.91879 1.81545 6.97241 1.50017 5.99979 1.5V2.25Z"
    fill="#33475B" />
  <path
    d="M5.99979 2.25H4.99979V3.24961L5.99941 3.25L5.99979 2.25ZM2.59029 4.4355L3.49911 4.8527L3.50754 4.83432L3.51523 4.81562L2.59029 4.4355ZM1.90929 4.12275L1.01823 3.66887L1.00897 3.68705L1.00046 3.70558L1.90929 4.12275ZM5.99979 1.5L5.99996 0.5L4.99979 0.49983V1.5H5.99979ZM5.99941 3.25C6.59376 3.25023 7.17204 3.44301 7.64764 3.79947L8.84713 2.19909C8.02564 1.58338 7.02679 1.2504 6.00018 1.25L5.99941 3.25ZM7.64764 3.79947C8.12324 4.15593 8.47055 4.65688 8.63756 5.22729L10.557 4.66532C10.2685 3.68007 9.66862 2.81479 8.84713 2.19909L7.64764 3.79947ZM8.63756 5.22729C8.80456 5.7977 8.78227 6.40687 8.57402 6.96354L10.4472 7.6643C10.8069 6.70277 10.8454 5.65058 10.557 4.66532L8.63756 5.22729ZM8.57402 6.96354C8.36577 7.52022 7.98277 7.99445 7.48239 8.31519L8.5617 9.99897C9.42599 9.44495 10.0875 8.62584 10.4472 7.6643L8.57402 6.96354ZM7.48239 8.31519C6.98201 8.63594 6.39118 8.78593 5.7984 8.74272L5.65299 10.7374C6.67688 10.8121 7.6974 10.553 8.5617 9.99897L7.48239 8.31519ZM5.7984 8.74272C5.20562 8.69951 4.64279 8.46541 4.19422 8.07548L2.88213 9.58493C3.65694 10.2584 4.62909 10.6628 5.65299 10.7374L5.7984 8.74272ZM4.19422 8.07548C3.74565 7.68556 3.43548 7.1608 3.31017 6.57981L1.35512 7.00149C1.57157 8.00502 2.10732 8.91142 2.88213 9.58493L4.19422 8.07548ZM3.31017 6.57981C3.18485 5.99881 3.25114 5.39286 3.49911 4.8527L1.68148 4.0183C1.25317 4.9513 1.13867 5.99795 1.35512 7.00149L3.31017 6.57981ZM3.51523 4.81562C3.65018 4.48726 3.65289 4.11942 3.5228 3.78911L1.66191 4.52198C1.60278 4.37183 1.60402 4.20464 1.66535 4.05538L3.51523 4.81562ZM3.5228 3.78911C3.39271 3.45879 3.1399 3.19159 2.81729 3.04343L1.9826 4.86092C1.83596 4.79358 1.72104 4.67212 1.66191 4.52198L3.5228 3.78911ZM2.81729 3.04343C2.49467 2.89526 2.12725 2.87763 1.79193 2.9942L2.44867 4.8833C2.29625 4.93629 2.12925 4.92827 1.9826 4.86092L2.81729 3.04343ZM1.79193 2.9942C1.4566 3.11078 1.17936 3.35253 1.01823 3.66887L2.80035 4.57663C2.72711 4.72042 2.60109 4.83031 2.44867 4.8833L1.79193 2.9942ZM1.00046 3.70558C0.504555 4.78596 0.372027 5.99792 0.622731 7.15993L2.57775 6.73814C2.41821 5.99868 2.50254 5.22743 2.81812 4.53992L1.00046 3.70558ZM0.622731 7.15993C0.873435 8.32195 1.49388 9.37146 2.39111 10.1513L3.70308 8.64171C3.13211 8.14547 2.73729 7.4776 2.57775 6.73814L0.622731 7.15993ZM2.39111 10.1513C3.28835 10.9311 4.41409 11.3992 5.59971 11.4855L5.74491 9.49076C4.99043 9.43584 4.27405 9.13795 3.70308 8.64171L2.39111 10.1513ZM5.59971 11.4855C6.78532 11.5718 7.96699 11.2716 8.9677 10.63L7.88818 8.94637C7.25136 9.35468 6.4994 9.54569 5.74491 9.49076L5.59971 11.4855ZM8.9677 10.63C9.96841 9.98837 10.7343 9.03978 11.1507 7.92632L9.27734 7.22584C9.01239 7.9344 8.525 8.53805 7.88818 8.94637L8.9677 10.63ZM11.1507 7.92632C11.567 6.81287 11.6114 5.59449 11.2772 4.45369L9.35785 5.01598C9.57053 5.74195 9.54228 6.51728 9.27734 7.22584L11.1507 7.92632ZM11.2772 4.45369C10.943 3.31288 10.2481 2.31107 9.29677 1.59831L8.09759 3.19892C8.703 3.6525 9.14517 4.29002 9.35785 5.01598L11.2772 4.45369ZM9.29677 1.59831C8.3454 0.885545 7.18871 0.500202 5.99996 0.5L5.99962 2.5C6.7561 2.50013 7.49217 2.74535 8.09759 3.19892L9.29677 1.59831ZM4.99979 1.5V2.25H6.99979V1.5H4.99979Z"
    fill="#33475B" mask="url(#path-1-inside-1_1049_3443)" />
  <path
    d="M6.00038 3.34932V0.40032C6.00037 0.364693 5.99021 0.329806 5.97108 0.299746C5.95196 0.269686 5.92467 0.245697 5.8924 0.230587C5.86014 0.215478 5.82423 0.209874 5.7889 0.214431C5.75357 0.218988 5.72026 0.233519 5.69288 0.25632L3.92288 1.73082C3.90178 1.74842 3.88481 1.77044 3.87316 1.79532C3.86151 1.8202 3.85547 1.84734 3.85547 1.87482C3.85547 1.9023 3.86151 1.92944 3.87316 1.95432C3.88481 1.9792 3.90178 2.00122 3.92288 2.01882L5.69288 3.49332C5.72026 3.51612 5.75357 3.53065 5.7889 3.53521C5.82423 3.53977 5.86014 3.53416 5.8924 3.51905C5.92467 3.50394 5.95196 3.47995 5.97108 3.44989C5.99021 3.41983 6.00037 3.38495 6.00038 3.34932V3.34932Z"
    fill="#33475B" />
</svg>