<svg width="12" height="12" viewBox="0 0 12 12" fill="none" xmlns="http://www.w3.org/2000/svg">
  <path
    d="M5.86938 8.1344L9.91221 3.32419C9.91604 3.32096 9.92034 3.31833 9.92498 3.31638C9.93108 3.31382 9.93763 3.3125 9.94424 3.3125C9.95086 3.3125 9.95741 3.31382 9.96351 3.31638C9.96961 3.31895 9.97514 3.3227 9.97978 3.32743L9.97977 3.32743L9.98148 3.32915C10.0056 3.35349 10.0061 3.39518 9.9823 3.42012L9.97214 3.43079L9.96263 3.44203L5.53696 8.6738C5.53304 8.67743 5.52856 8.68041 5.52369 8.68262L5.73005 9.13804L5.52369 8.68262C5.51752 8.68541 5.51085 8.68692 5.50409 8.68704C5.49732 8.68717 5.4906 8.68592 5.48434 8.68336L5.29521 9.14621L5.48433 8.68335C5.47807 8.6808 5.47239 8.67698 5.46765 8.67215L5.46676 8.67125L2.76938 5.93788C2.76928 5.93779 2.76919 5.93769 2.76909 5.93759C2.75685 5.92496 2.75 5.90805 2.75 5.89045C2.75 5.87271 2.75696 5.85568 2.76938 5.84302L2.76946 5.84293C2.7741 5.8382 2.77962 5.83445 2.78572 5.83188C2.79183 5.82932 2.79838 5.828 2.80499 5.828C2.81161 5.828 2.81816 5.82932 2.82426 5.83188C2.83036 5.83445 2.83589 5.8382 2.84052 5.84293L2.84052 5.84293L2.84171 5.84414L5.13071 8.16389L5.51623 8.55458L5.86938 8.1344ZM9.92289 3.31141L9.91867 3.30137L9.92289 3.31141Z"
    fill="white" stroke="white" />
</svg>
