<svg width="14" height="13" viewBox="0 0 14 13" fill="none" xmlns="http://www.w3.org/2000/svg">
  <path
    d="M10.8455 3.50075C10.8991 3.4461 10.963 3.40268 11.0336 3.37303C11.1041 3.34339 11.1799 3.32812 11.2564 3.32812C11.333 3.32812 11.4087 3.34339 11.4793 3.37303C11.5498 3.40268 11.6138 3.4461 11.6673 3.50075C11.8918 3.72759 11.8949 4.09414 11.6752 4.3249L7.03404 9.81138C6.98134 9.86925 6.9174 9.91575 6.84611 9.94805C6.77483 9.98035 6.6977 9.99777 6.61945 9.99924C6.54121 10.0007 6.46348 9.9862 6.39103 9.9566C6.31859 9.927 6.25294 9.88293 6.19811 9.82708L3.37403 6.96532C3.26511 6.85424 3.2041 6.70488 3.2041 6.54932C3.2041 6.39376 3.26511 6.2444 3.37403 6.13332C3.42759 6.07867 3.49153 6.03524 3.56208 6.0056C3.63264 5.97596 3.7084 5.96069 3.78492 5.96069C3.86145 5.96069 3.93721 5.97596 4.00777 6.0056C4.07832 6.03524 4.14226 6.07867 4.19582 6.13332L6.59135 8.56103L10.8298 3.51802C10.8347 3.51195 10.84 3.50619 10.8455 3.50075Z"
    fill="#33475B" />
</svg>
