<svg width="13" height="13" viewBox="0 0 13 13" fill="none" xmlns="http://www.w3.org/2000/svg">
<g clip-path="url(#clip0_619_17032)">
<rect x="0.407227" y="0.0693359" width="12.5585" height="12.5585" rx="3.13962" fill="#F26524"/>
<path d="M9.93918 3.58074C9.98605 3.53291 10.042 3.49492 10.1037 3.46898C10.1655 3.44305 10.2318 3.42969 10.2987 3.42969C10.3657 3.42969 10.432 3.44305 10.4937 3.46898C10.5554 3.49492 10.6114 3.53291 10.6582 3.58074C10.8547 3.77922 10.8574 4.09995 10.6651 4.30187L6.60412 9.10254C6.55801 9.15317 6.50206 9.19386 6.43969 9.22212C6.37731 9.25039 6.30983 9.26563 6.24136 9.26691C6.1729 9.2682 6.10489 9.2555 6.0415 9.2296C5.9781 9.2037 5.92066 9.16514 5.87269 9.11627L3.40161 6.61223C3.30631 6.51504 3.25293 6.38435 3.25293 6.24823C3.25293 6.11211 3.30631 5.98142 3.40161 5.88423C3.44849 5.83641 3.50443 5.79842 3.56616 5.77248C3.6279 5.74654 3.69419 5.73319 3.76115 5.73319C3.82811 5.73319 3.8944 5.74654 3.95614 5.77248C4.01787 5.79842 4.07381 5.83641 4.12068 5.88423L6.21677 8.00848L9.92544 3.59585C9.92971 3.59054 9.9343 3.58549 9.93918 3.58074Z" fill="white"/>
</g>
<rect x="0.799679" y="0.461788" width="11.7736" height="11.7736" rx="2.74716" stroke="#F26524" strokeWidth="0.784904"/>
<defs>
<clipPath id="clip0_619_17032">
<rect x="0.407227" y="0.0693359" width="12.5585" height="12.5585" rx="3.13962" fill="white"/>
</clipPath>
</defs>
</svg>
