<svg width="25" height="25" viewBox="0 0 25 25" fill="none" xmlns="http://www.w3.org/2000/svg">
<g id="Frame 1171275935">
<circle id="Ellipse 8" cx="12.746" cy="12.4139" r="12.0824" fill="url(#paint0_linear_165_6812)"/>
<path id="Vector" d="M13.309 19.2106C9.85184 19.2106 7.0387 16.4049 7.0387 12.9569C7.0387 9.5089 9.85184 6.7032 13.309 6.7032C15.274 6.7032 17.1096 7.6173 18.2962 9.16885L19.143 8.77883C17.7915 6.89942 15.648 5.79274 13.3102 5.79274C9.40579 5.79274 6.21871 8.91534 6.12828 12.7863C6.12583 12.8801 6.05006 12.9569 5.95597 12.9569H5.36817C5.27162 12.9569 5.19219 12.8777 5.19464 12.7814C5.28873 8.39856 8.89254 4.86279 13.309 4.86279C16.1454 4.86279 18.7275 6.30343 20.2209 8.71789C20.2624 8.78492 20.2918 8.86171 20.2966 8.94093C20.3089 9.14081 20.1977 9.31754 20.0266 9.39676L18.3353 10.1744C18.1275 10.2694 17.8794 10.2012 17.7523 10.0098C16.7564 8.52166 15.0944 7.63315 13.3078 7.63315C10.3639 7.63315 7.96989 10.022 7.96989 12.9569C7.96989 15.8918 10.3651 18.2807 13.3078 18.2807C14.9099 18.2807 16.4118 17.5652 17.4236 16.344L16.5596 15.9466C15.6443 16.9375 14.3404 17.4592 12.9644 17.3556C10.7794 17.1911 9.02329 15.4092 8.89131 13.2287C8.73611 10.6716 10.7769 8.54238 13.3078 8.54238C14.1119 8.54238 14.9001 8.76055 15.5869 9.17372C15.7812 9.29073 15.8655 9.5284 15.7849 9.74047L15.1091 11.5029C15.0773 11.587 15.0247 11.665 14.9514 11.7174C14.7693 11.8502 14.531 11.8344 14.3697 11.7003C13.8992 11.3042 13.2235 11.1909 12.6222 11.4626C12.0772 11.7088 11.7057 12.2463 11.6654 12.8423C11.6006 13.7991 12.3619 14.5986 13.3078 14.5986C13.6438 14.5986 13.9726 14.4963 14.2463 14.3061C14.3196 14.2562 14.4186 14.2696 14.4748 14.3366L14.8537 14.7851C14.9184 14.8619 14.905 14.9789 14.8231 15.0374C14.3844 15.3555 13.8528 15.5286 13.3066 15.5286C11.8841 15.5286 10.728 14.3744 10.728 12.9569C10.728 11.5394 11.8853 10.3852 13.3066 10.3852C13.7013 10.3852 14.0887 10.4754 14.4382 10.646L14.7657 9.79288C14.3099 9.58324 13.8125 9.47355 13.3066 9.47355C11.3183 9.47355 9.71375 11.1384 9.81884 13.1434C9.91172 14.9107 11.3623 16.3513 13.1355 16.4354C14.2854 16.4902 15.3657 15.9905 16.0696 15.0849C16.2004 14.9168 16.4338 14.8668 16.6268 14.9558L18.3194 15.7334C18.3939 15.7675 18.4624 15.8162 18.5112 15.8821C18.6334 16.0466 18.6334 16.2611 18.5259 16.4208C17.3564 18.1685 15.4048 19.2106 13.3066 19.2106H13.309Z" fill="white"/>
</g>
<defs>
<linearGradient id="paint0_linear_165_6812" x1="12.746" y1="0.331543" x2="12.746" y2="24.4963" gradientUnits="userSpaceOnUse">
<stop stop-color="#FF681D"/>
<stop offset="1" stop-color="#FAA21B"/>
</linearGradient>
</defs>
</svg>
