<svg width="16" height="17" viewBox="0 0 16 17" fill="none" xmlns="http://www.w3.org/2000/svg">
<g id="cloud-download-fill" clip-path="url(#clip0_165_6729)">
<path id="Vector" fill-rule="evenodd" clip-rule="evenodd" d="M8 0.5C6.68024 0.504139 5.40548 0.980135 4.406 1.842C3.64 2.502 3.085 3.362 2.942 4.225C1.266 4.595 0 6.055 0 7.818C0 9.866 1.708 11.5 3.781 11.5H7.5V6C7.5 5.86739 7.55268 5.74021 7.64645 5.64645C7.74021 5.55268 7.86739 5.5 8 5.5C8.13261 5.5 8.25979 5.55268 8.35355 5.64645C8.44732 5.74021 8.5 5.86739 8.5 6V11.5H12.688C14.502 11.5 16 10.07 16 8.273C16 6.637 14.758 5.304 13.166 5.079C12.923 2.499 10.69 0.5 8 0.5ZM7.646 16.354C7.69245 16.4006 7.74762 16.4375 7.80837 16.4627C7.86911 16.4879 7.93423 16.5009 8 16.5009C8.06577 16.5009 8.13089 16.4879 8.19163 16.4627C8.25238 16.4375 8.30755 16.4006 8.354 16.354L11.354 13.354C11.4479 13.2601 11.5006 13.1328 11.5006 13C11.5006 12.8672 11.4479 12.7399 11.354 12.646C11.2601 12.5521 11.1328 12.4994 11 12.4994C10.8672 12.4994 10.7399 12.5521 10.646 12.646L8.5 14.793V11.5H7.5V14.793L5.354 12.646C5.26011 12.5521 5.13278 12.4994 5 12.4994C4.86722 12.4994 4.73989 12.5521 4.646 12.646C4.55211 12.7399 4.49937 12.8672 4.49937 13C4.49937 13.1328 4.55211 13.2601 4.646 13.354L7.646 16.354Z" fill="#333333"/>
</g>
<defs>
<clipPath id="clip0_165_6729">
<rect width="16" height="16" fill="white" transform="translate(0 0.5)"/>
</clipPath>
</defs>
</svg>
