<svg width="14" height="13" viewBox="0 0 14 13" fill="none" xmlns="http://www.w3.org/2000/svg">
  <g clip-path="url(#clip0_619_17039)">
    <path fill-rule="evenodd" clip-rule="evenodd"
      d="M7.12787 0.337891C6.09198 0.341139 5.09142 0.714751 4.30692 1.39123C3.70568 1.90927 3.27006 2.58429 3.15782 3.26166C1.84232 3.55207 0.848633 4.69803 0.848633 6.08182C0.848633 7.6893 2.18925 8.97184 3.81636 8.97184H6.73541V4.65486C6.73541 4.55078 6.77676 4.45096 6.85036 4.37736C6.92396 4.30376 7.02378 4.26241 7.12787 4.26241C7.23195 4.26241 7.33177 4.30376 7.40537 4.37736C7.47897 4.45096 7.52032 4.55078 7.52032 4.65486V8.97184H10.8075C12.2313 8.97184 13.4071 7.84942 13.4071 6.43895C13.4071 5.15485 12.4323 4.10857 11.1827 3.93197C10.992 1.90691 9.23926 0.337891 7.12787 0.337891ZM6.85001 12.7818C6.88647 12.8183 6.92977 12.8473 6.97745 12.8671C7.02513 12.8869 7.07625 12.8971 7.12787 12.8971C7.17949 12.8971 7.2306 12.8869 7.27828 12.8671C7.32596 12.8473 7.36927 12.8183 7.40572 12.7818L9.76044 10.427C9.83413 10.3534 9.87553 10.2534 9.87553 10.1492C9.87553 10.045 9.83413 9.94503 9.76044 9.87134C9.68674 9.79765 9.5868 9.75625 9.48258 9.75625C9.37836 9.75625 9.27842 9.79765 9.20472 9.87134L7.52032 11.5565V8.97184H6.73541V11.5565L5.05101 9.87134C4.97732 9.79765 4.87737 9.75625 4.77315 9.75625C4.66894 9.75625 4.56899 9.79765 4.4953 9.87134C4.42161 9.94503 4.38021 10.045 4.38021 10.1492C4.38021 10.2534 4.42161 10.3534 4.4953 10.427L6.85001 12.7818Z"
      fill="#33475B" />
  </g>
  <defs>
    <clipPath id="clip0_619_17039">
      <rect width="12.5585" height="12.5585" fill="white" transform="translate(0.848633 0.337891)" />
    </clipPath>
  </defs>
</svg>
