<svg width="14" height="14" viewBox="0 0 14 14" fill="none" xmlns="http://www.w3.org/2000/svg">
  <g clip-path="url(#clip0_619_17026)">
    <path
      d="M0.848633 10.8435C0.848633 11.1558 0.972675 11.4552 1.19347 11.676C1.41427 11.8968 1.71373 12.0209 2.02599 12.0209H12.2297C12.542 12.0209 12.8415 11.8968 13.0623 11.676C13.2831 11.4552 13.4071 11.1558 13.4071 10.8435V5.3492C13.4071 5.03695 13.2831 4.73748 13.0623 4.51668C12.8415 4.29589 12.542 4.17184 12.2297 4.17184H2.02599C1.71373 4.17184 1.41427 4.29589 1.19347 4.51668C0.972675 4.73748 0.848633 5.03695 0.848633 5.3492L0.848633 10.8435ZM2.41844 2.99449C2.41844 3.09857 2.45979 3.19839 2.53339 3.27199C2.60699 3.34559 2.70681 3.38694 2.81089 3.38694H11.4448C11.5489 3.38694 11.6487 3.34559 11.7223 3.27199C11.7959 3.19839 11.8373 3.09857 11.8373 2.99449C11.8373 2.8904 11.7959 2.79058 11.7223 2.71698C11.6487 2.64338 11.5489 2.60203 11.4448 2.60203H2.81089C2.70681 2.60203 2.60699 2.64338 2.53339 2.71698C2.45979 2.79058 2.41844 2.8904 2.41844 2.99449ZM3.98825 1.42468C3.98825 1.52876 4.0296 1.62859 4.1032 1.70218C4.1768 1.77578 4.27662 1.81713 4.3807 1.81713H9.87503C9.97912 1.81713 10.0789 1.77578 10.1525 1.70218C10.2261 1.62859 10.2675 1.52876 10.2675 1.42468C10.2675 1.32059 10.2261 1.22077 10.1525 1.14717C10.0789 1.07357 9.97912 1.03223 9.87503 1.03223H4.3807C4.27662 1.03223 4.1768 1.07357 4.1032 1.14717C4.0296 1.22077 3.98825 1.32059 3.98825 1.42468Z"
      fill="#33475B" />
  </g>
  <defs>
    <clipPath id="clip0_619_17026">
      <rect width="12.5585" height="12.5585" fill="white" transform="translate(0.848633 0.639648)" />
    </clipPath>
  </defs>
</svg>
