<svg width="23" height="23" viewBox="0 0 23 23" fill="none" xmlns="http://www.w3.org/2000/svg">
<g id="ant-design:delete-outlined">
<path id="Vector" d="M8.08594 4.13281H7.90625C8.00508 4.13281 8.08594 4.05195 8.08594 3.95312V4.13281ZM8.08594 4.13281H14.9141V3.95312C14.9141 4.05195 14.9949 4.13281 15.0938 4.13281H14.9141V5.75H16.5312V3.95312C16.5312 3.16025 15.8866 2.51562 15.0938 2.51562H7.90625C7.11338 2.51562 6.46875 3.16025 6.46875 3.95312V5.75H8.08594V4.13281ZM19.4062 5.75H3.59375C3.19619 5.75 2.875 6.07119 2.875 6.46875V7.1875C2.875 7.28633 2.95586 7.36719 3.05469 7.36719H4.41133L4.96611 19.1143C5.00205 19.8802 5.63545 20.4844 6.40137 20.4844H16.5986C17.3668 20.4844 17.9979 19.8824 18.0339 19.1143L18.5887 7.36719H19.9453C20.0441 7.36719 20.125 7.28633 20.125 7.1875V6.46875C20.125 6.07119 19.8038 5.75 19.4062 5.75ZM16.4257 18.8672H6.57432L6.03076 7.36719H16.9692L16.4257 18.8672Z" fill="#33475B"/>
</g>
</svg>
