<svg width="32" height="32" viewBox="0 0 32 32" fill="none" xmlns="http://www.w3.org/2000/svg">
  <rect x="9" y="11" width="13" height="13" fill="white" />
  <path
    d="M26.8777 14.5523L25.6476 13.9051L25.8842 12.5645C25.9315 12.1946 25.9788 11.9173 25.9788 11.5937C25.9788 8.49635 23.4241 6 20.2545 6C18.3148 6 16.5644 6.92457 15.4763 8.54258L14.5302 9.92944L13.0163 9.14355C12.2121 8.72749 11.3605 8.54258 10.4617 8.54258H10.1305C7.33931 8.54258 4.9739 10.6229 4.64274 13.3041L4.54812 14.1825L3.74388 14.6448C2.04078 15.6618 1 17.4647 1 19.4063C1 22.5036 3.55465 25 6.72431 25H24.2757C27.398 25 30 22.5036 30 19.4063C30 17.4185 28.8173 15.5231 26.8777 14.5523ZM20.2072 18.7129L15.5237 23.2895L10.8401 18.7129C10.4617 18.3431 10.4617 17.7883 10.8401 17.4185C11.2186 17.0487 11.7863 17.0487 12.1648 17.4185L14.5775 19.7299V12.4258C14.5775 11.9173 15.0033 11.5012 15.5237 11.5012C16.044 11.5012 16.4698 11.9173 16.4698 12.4258V19.7299L18.8825 17.3723C19.261 17.0024 19.8287 17.0024 20.2072 17.3723C20.5856 17.7421 20.5856 18.3431 20.2072 18.7129Z"
    fill="#F26524" />
</svg>