<svg width="20" height="19" viewBox="0 0 20 19" fill="none" xmlns="http://www.w3.org/2000/svg">
<g id="lucide:edit">
<g id="Group">
<path id="Vector" d="M10 2.375H4.16667C3.72464 2.375 3.30072 2.54181 2.98816 2.83875C2.67559 3.13568 2.5 3.53841 2.5 3.95833V15.0417C2.5 15.4616 2.67559 15.8643 2.98816 16.1613C3.30072 16.4582 3.72464 16.625 4.16667 16.625H15.8333C16.2754 16.625 16.6993 16.4582 17.0118 16.1613C17.3244 15.8643 17.5 15.4616 17.5 15.0417V9.5" stroke="#33475B" stroke-width="2" stroke-linecap="round" stroke-linejoin="round"/>
<path id="Vector_2" d="M15.3118 2.0783C15.6434 1.76336 16.093 1.58643 16.5618 1.58643C17.0307 1.58643 17.4803 1.76336 17.8118 2.0783C18.1434 2.39325 18.3296 2.82041 18.3296 3.2658C18.3296 3.7112 18.1434 4.13836 17.8118 4.4533L9.99935 11.8752L6.66602 12.6668L7.49935 9.50018L15.3118 2.0783Z" stroke="#33475B" stroke-width="2" stroke-linecap="round" stroke-linejoin="round"/>
</g>
</g>
</svg>
