<svg width="12" height="12" viewBox="0 0 12 12" fill="none" xmlns="http://www.w3.org/2000/svg">
  <mask id="path-1-inside-1_564_677" fill="white">
    <path
      d="M1.5 7.875C1.5 7.77554 1.53951 7.68016 1.60984 7.60983C1.68016 7.53951 1.77554 7.5 1.875 7.5H4.125C4.22446 7.5 4.31984 7.53951 4.39016 7.60983C4.46049 7.68016 4.5 7.77554 4.5 7.875C4.5 7.97446 4.46049 8.06984 4.39016 8.14017C4.31984 8.21049 4.22446 8.25 4.125 8.25H1.875C1.77554 8.25 1.68016 8.21049 1.60984 8.14017C1.53951 8.06984 1.5 7.97446 1.5 7.875ZM1.5 5.625C1.5 5.52554 1.53951 5.43016 1.60984 5.35984C1.68016 5.28951 1.77554 5.25 1.875 5.25H7.125C7.22446 5.25 7.31984 5.28951 7.39017 5.35984C7.46049 5.43016 7.5 5.52554 7.5 5.625C7.5 5.72446 7.46049 5.81984 7.39017 5.89016C7.31984 5.96049 7.22446 6 7.125 6H1.875C1.77554 6 1.68016 5.96049 1.60984 5.89016C1.53951 5.81984 1.5 5.72446 1.5 5.625ZM1.5 3.375C1.5 3.27554 1.53951 3.18016 1.60984 3.10984C1.68016 3.03951 1.77554 3 1.875 3H10.125C10.2245 3 10.3198 3.03951 10.3902 3.10984C10.4605 3.18016 10.5 3.27554 10.5 3.375C10.5 3.47446 10.4605 3.56984 10.3902 3.64016C10.3198 3.71049 10.2245 3.75 10.125 3.75H1.875C1.77554 3.75 1.68016 3.71049 1.60984 3.64016C1.53951 3.56984 1.5 3.47446 1.5 3.375Z" />
  </mask>
  <path
    d="M1.5 7.875C1.5 7.77554 1.53951 7.68016 1.60984 7.60983C1.68016 7.53951 1.77554 7.5 1.875 7.5H4.125C4.22446 7.5 4.31984 7.53951 4.39016 7.60983C4.46049 7.68016 4.5 7.77554 4.5 7.875C4.5 7.97446 4.46049 8.06984 4.39016 8.14017C4.31984 8.21049 4.22446 8.25 4.125 8.25H1.875C1.77554 8.25 1.68016 8.21049 1.60984 8.14017C1.53951 8.06984 1.5 7.97446 1.5 7.875ZM1.5 5.625C1.5 5.52554 1.53951 5.43016 1.60984 5.35984C1.68016 5.28951 1.77554 5.25 1.875 5.25H7.125C7.22446 5.25 7.31984 5.28951 7.39017 5.35984C7.46049 5.43016 7.5 5.52554 7.5 5.625C7.5 5.72446 7.46049 5.81984 7.39017 5.89016C7.31984 5.96049 7.22446 6 7.125 6H1.875C1.77554 6 1.68016 5.96049 1.60984 5.89016C1.53951 5.81984 1.5 5.72446 1.5 5.625ZM1.5 3.375C1.5 3.27554 1.53951 3.18016 1.60984 3.10984C1.68016 3.03951 1.77554 3 1.875 3H10.125C10.2245 3 10.3198 3.03951 10.3902 3.10984C10.4605 3.18016 10.5 3.27554 10.5 3.375C10.5 3.47446 10.4605 3.56984 10.3902 3.64016C10.3198 3.71049 10.2245 3.75 10.125 3.75H1.875C1.77554 3.75 1.68016 3.71049 1.60984 3.64016C1.53951 3.56984 1.5 3.47446 1.5 3.375Z"
    fill="#1F2937" />
  <path
    d="M1.875 3V4V3ZM10.125 3V4V3ZM2.5 7.875C2.5 8.04076 2.43415 8.19973 2.31694 8.31694L0.902728 6.90273C0.644866 7.16059 0.5 7.51033 0.5 7.875H2.5ZM2.31694 8.31694C2.19973 8.43415 2.04076 8.5 1.875 8.5V6.5C1.51033 6.5 1.16059 6.64486 0.902728 6.90273L2.31694 8.31694ZM1.875 8.5H4.125V6.5H1.875V8.5ZM4.125 8.5C3.95924 8.5 3.80027 8.43415 3.68306 8.31694L5.09727 6.90273C4.83941 6.64486 4.48967 6.5 4.125 6.5V8.5ZM3.68306 8.31694C3.56585 8.19973 3.5 8.04076 3.5 7.875H5.5C5.5 7.51033 5.35513 7.16059 5.09727 6.90273L3.68306 8.31694ZM3.5 7.875C3.5 7.70924 3.56585 7.55027 3.68306 7.43306L5.09727 8.84727C5.35513 8.58941 5.5 8.23967 5.5 7.875H3.5ZM3.68306 7.43306C3.80027 7.31585 3.95924 7.25 4.125 7.25V9.25C4.48967 9.25 4.83941 9.10514 5.09727 8.84727L3.68306 7.43306ZM4.125 7.25H1.875V9.25H4.125V7.25ZM1.875 7.25C2.04076 7.25 2.19973 7.31585 2.31694 7.43306L0.902728 8.84727C1.16059 9.10514 1.51033 9.25 1.875 9.25V7.25ZM2.31694 7.43306C2.43415 7.55027 2.5 7.70924 2.5 7.875H0.5C0.5 8.23967 0.644866 8.58941 0.902728 8.84727L2.31694 7.43306ZM2.5 5.625C2.5 5.79076 2.43415 5.94973 2.31694 6.06694L0.902728 4.65273C0.644866 4.91059 0.5 5.26033 0.5 5.625H2.5ZM2.31694 6.06694C2.19973 6.18415 2.04076 6.25 1.875 6.25V4.25C1.51033 4.25 1.16059 4.39487 0.902728 4.65273L2.31694 6.06694ZM1.875 6.25H7.125V4.25H1.875V6.25ZM7.125 6.25C6.95924 6.25 6.80027 6.18415 6.68306 6.06694L8.09727 4.65273C7.83941 4.39487 7.48967 4.25 7.125 4.25V6.25ZM6.68306 6.06694C6.56585 5.94973 6.5 5.79076 6.5 5.625H8.5C8.5 5.26033 8.35514 4.91059 8.09727 4.65273L6.68306 6.06694ZM6.5 5.625C6.5 5.45924 6.56585 5.30027 6.68306 5.18306L8.09727 6.59727C8.35514 6.33941 8.5 5.98967 8.5 5.625H6.5ZM6.68306 5.18306C6.80027 5.06585 6.95924 5 7.125 5V7C7.48967 7 7.83941 6.85513 8.09727 6.59727L6.68306 5.18306ZM7.125 5H1.875V7H7.125V5ZM1.875 5C2.04076 5 2.19973 5.06585 2.31694 5.18306L0.902728 6.59727C1.16059 6.85513 1.51033 7 1.875 7V5ZM2.31694 5.18306C2.43415 5.30027 2.5 5.45924 2.5 5.625H0.5C0.5 5.98967 0.644866 6.33941 0.902728 6.59727L2.31694 5.18306ZM2.5 3.375C2.5 3.54076 2.43415 3.69973 2.31694 3.81694L0.902728 2.40273C0.644866 2.66059 0.5 3.01033 0.5 3.375H2.5ZM2.31694 3.81694C2.19973 3.93415 2.04076 4 1.875 4V2C1.51033 2 1.16059 2.14487 0.902728 2.40273L2.31694 3.81694ZM1.875 4H10.125V2H1.875V4ZM10.125 4C9.95924 4 9.80027 3.93415 9.68306 3.81694L11.0973 2.40273C10.8394 2.14487 10.4897 2 10.125 2V4ZM9.68306 3.81694C9.56585 3.69973 9.5 3.54076 9.5 3.375H11.5C11.5 3.01033 11.3551 2.66059 11.0973 2.40273L9.68306 3.81694ZM9.5 3.375C9.5 3.20924 9.56585 3.05027 9.68306 2.93306L11.0973 4.34727C11.3551 4.08941 11.5 3.73967 11.5 3.375H9.5ZM9.68306 2.93306C9.80027 2.81585 9.95924 2.75 10.125 2.75V4.75C10.4897 4.75 10.8394 4.60513 11.0973 4.34727L9.68306 2.93306ZM10.125 2.75H1.875V4.75H10.125V2.75ZM1.875 2.75C2.04076 2.75 2.19973 2.81585 2.31694 2.93306L0.902728 4.34727C1.16059 4.60513 1.51033 4.75 1.875 4.75V2.75ZM2.31694 2.93306C2.43415 3.05027 2.5 3.20924 2.5 3.375H0.5C0.5 3.73967 0.644866 4.08941 0.902728 4.34727L2.31694 2.93306Z"
    fill="#1F2937" mask="url(#path-1-inside-1_564_677)" />
</svg>
