<svg width="439" height="479" viewBox="0 0 439 479" fill="none" xmlns="http://www.w3.org/2000/svg">
<path d="M438.934 374.495L257.929 478.999L0 330.087L181.006 225.583L438.934 374.495Z" fill="#EDEDEE"/>
<path d="M182.357 256.285L51.4944 331.816L43.6924 327.304L174.512 251.772L182.357 256.285Z" fill="#1D1D1B"/>
<path d="M203.739 268.641L72.919 344.214L68.1113 341.431L198.931 265.899L203.739 268.641Z" fill="#1D1D1B"/>
<path d="M216.681 276.106L85.8614 351.68L81.0537 348.897L211.874 273.365L216.681 276.106Z" fill="#1D1D1B"/>
<path d="M229.633 283.613L98.8128 359.145L93.9629 356.362L224.825 280.83L229.633 283.613Z" fill="#1D1D1B"/>
<path d="M255.483 298.542L124.663 374.074L119.855 371.29L250.675 295.759L255.483 298.542Z" fill="#1D1D1B"/>
<path d="M268.431 306.007L137.611 381.539L132.804 378.755L263.624 303.224L268.431 306.007Z" fill="#1D1D1B"/>
<path d="M200.615 360.072L150.556 389.002L145.706 386.219L195.807 357.288L200.615 360.072Z" fill="#1D1D1B"/>
<path d="M294.324 320.936L163.462 396.467L158.654 393.684L289.474 318.152L294.324 320.936Z" fill="#1D1D1B"/>
<path d="M307.23 328.4L176.41 403.931L171.603 401.148L302.422 325.616L307.23 328.4Z" fill="#1D1D1B"/>
<path d="M289.515 353.576L189.355 411.395L184.547 408.654L284.707 350.793L289.515 353.576Z" fill="#1D1D1B"/>
<path d="M286.479 400.136L228.154 433.832L223.347 431.049L281.672 397.353L286.479 400.136Z" fill="#1D1D1B"/>
<path d="M299.426 407.601L241.101 441.297L236.251 438.514L294.618 404.817L299.426 407.601Z" fill="#1D1D1B"/>
<path opacity="0.1" d="M282.346 134.534C240.342 110.284 172.233 110.284 130.524 134.534C88.8148 158.783 89.0257 198.215 131.03 222.464C173.034 246.713 241.101 246.713 282.81 222.464C324.561 198.215 324.35 158.741 282.346 134.534Z" fill="white"/>
<mask id="mask0_482_5469" style="mask-type:luminance" maskUnits="userSpaceOnUse" x="99" y="116" width="215" height="125">
<path d="M282.344 134.534C240.34 110.284 172.231 110.284 130.522 134.534C88.8129 158.783 89.0237 198.215 131.028 222.464C173.032 246.713 241.099 246.713 282.808 222.464C324.559 198.215 324.348 158.741 282.344 134.534Z" fill="white"/>
</mask>
<g mask="url(#mask0_482_5469)">
<g opacity="0.2">
<path d="M135.122 139.891L141.996 143.855C142.924 144.403 143.894 144.657 144.948 144.657C146.003 144.657 146.93 144.403 147.858 143.855L149.84 142.716C150.726 142.21 151.19 141.62 151.19 141.03C151.19 140.439 150.726 139.849 149.798 139.343L142.924 135.378C141.996 134.872 141.026 134.577 140.014 134.577C138.96 134.577 137.99 134.83 137.104 135.336L135.122 136.475C134.236 136.981 133.772 137.571 133.772 138.162C133.772 138.794 134.194 139.385 135.122 139.891ZM136.556 137.15L138.201 136.222C139.297 135.589 140.436 135.589 141.574 136.264L148.322 140.144C149.461 140.819 149.503 141.451 148.364 142.084L146.72 143.012C145.623 143.644 144.484 143.644 143.346 142.969L136.598 139.09C135.459 138.457 135.459 137.782 136.556 137.15Z" fill="white"/>
<path d="M159.665 125.719L166.539 129.683C167.467 130.231 168.437 130.484 169.491 130.484C170.546 130.484 171.516 130.231 172.401 129.683L174.383 128.545C175.269 128.039 175.733 127.448 175.733 126.858C175.733 126.267 175.269 125.677 174.341 125.171L167.467 121.206C166.539 120.7 165.569 120.405 164.515 120.405C163.461 120.405 162.491 120.658 161.605 121.164L159.623 122.303C158.737 122.809 158.273 123.399 158.273 123.99C158.273 124.665 158.737 125.213 159.665 125.719ZM161.099 122.978L162.744 122.05C163.84 121.417 164.979 121.417 166.118 122.092L172.865 125.972C174.004 126.647 174.046 127.279 172.907 127.912L171.263 128.84C170.166 129.472 169.027 129.472 167.889 128.798L161.141 124.918C160.003 124.285 160.003 123.61 161.099 122.978Z" fill="white"/>
<path d="M173.077 117.749C173.33 117.876 173.498 117.834 173.583 117.623L174.595 115.472L185.518 121.756C185.686 121.882 185.897 121.882 186.066 121.756L186.952 121.25C187.12 121.123 187.12 121.039 186.952 120.912L174.764 113.869C174.595 113.743 174.384 113.743 174.215 113.869L173.372 114.333C173.245 114.418 173.119 114.544 173.035 114.755L172.065 116.864C171.98 116.99 172.065 117.159 172.275 117.243L173.077 117.749Z" fill="white"/>
<path d="M122.554 185.014C122.554 184.424 122.09 183.833 121.163 183.327L114.288 179.363C113.361 178.857 112.391 178.562 111.336 178.562C110.282 178.562 109.312 178.815 108.426 179.321L106.444 180.459C105.559 180.965 105.095 181.556 105.095 182.146C105.095 182.737 105.559 183.327 106.444 183.833L113.318 187.797C114.246 188.346 115.216 188.599 116.271 188.599C117.325 188.599 118.295 188.346 119.18 187.797L121.163 186.659C122.09 186.195 122.554 185.647 122.554 185.014ZM119.771 186.068L118.126 186.996C117.03 187.629 115.891 187.629 114.752 186.954L108.005 183.074C106.866 182.399 106.824 181.767 107.92 181.134L109.565 180.206C110.662 179.574 111.8 179.574 112.939 180.248L119.687 184.128C120.867 184.761 120.867 185.436 119.771 186.068Z" fill="white"/>
<path d="M140.056 174.935C141.11 174.935 142.08 174.682 142.966 174.134L144.948 172.995C145.834 172.489 146.297 171.898 146.297 171.308C146.297 170.717 145.834 170.127 144.906 169.621L138.032 165.657C137.104 165.151 136.134 164.855 135.079 164.855C134.025 164.855 133.055 165.108 132.17 165.615L130.187 166.753C129.302 167.259 128.838 167.85 128.838 168.44C128.838 169.031 129.302 169.621 130.187 170.127L137.062 174.091C138.032 174.682 139.002 174.935 140.056 174.935ZM131.663 167.428L133.308 166.5C134.405 165.868 135.543 165.868 136.682 166.542L143.43 170.422C144.568 171.097 144.611 171.73 143.472 172.362L141.827 173.29C140.731 173.923 139.592 173.923 138.453 173.248L131.706 169.368C130.567 168.693 130.567 168.061 131.663 167.428Z" fill="white"/>
<path d="M158.823 151.192C157.768 151.192 156.798 151.445 155.913 151.951L153.931 153.09C153.045 153.596 152.581 154.187 152.581 154.777C152.581 155.368 153.045 155.958 153.931 156.464L160.805 160.428C161.733 160.976 162.702 161.23 163.757 161.23C164.811 161.23 165.739 160.976 166.667 160.428L168.649 159.289C169.535 158.783 169.998 158.193 169.998 157.603C169.998 157.012 169.535 156.422 168.607 155.916L161.733 151.951C160.847 151.445 159.835 151.192 158.823 151.192ZM167.173 158.699L165.528 159.627C164.432 160.26 163.293 160.259 162.154 159.585L155.407 155.705C154.268 155.03 154.226 154.397 155.322 153.765L156.967 152.837C158.063 152.204 159.202 152.205 160.341 152.879L167.089 156.759C168.269 157.392 168.311 158.067 167.173 158.699Z" fill="white"/>
<path d="M168.1 144.909L167.257 145.373C167.13 145.457 167.004 145.583 166.919 145.794L165.949 147.903C165.865 148.03 165.949 148.198 166.16 148.283L166.961 148.746C167.215 148.873 167.383 148.831 167.468 148.62L168.48 146.469L179.402 152.753C179.571 152.879 179.782 152.879 179.951 152.753L180.836 152.247C181.005 152.12 181.005 152.036 180.836 151.909L168.648 144.867C168.48 144.824 168.311 144.824 168.1 144.909Z" fill="white"/>
<path d="M182.523 137.487C181.468 137.487 180.499 137.74 179.613 138.246L177.631 139.385C176.745 139.891 176.281 140.482 176.281 141.072C176.281 141.662 176.745 142.253 177.631 142.759L184.505 146.723C185.433 147.271 186.403 147.524 187.457 147.524C188.511 147.524 189.439 147.271 190.367 146.723L192.349 145.584C193.235 145.078 193.699 144.488 193.699 143.898C193.699 143.307 193.235 142.717 192.307 142.211L185.433 138.246C184.547 137.782 183.577 137.487 182.523 137.487ZM190.915 144.994L189.27 145.922C188.174 146.554 187.035 146.554 185.897 145.88L179.149 142C178.01 141.325 177.968 140.692 179.065 140.06L180.709 139.132C181.806 138.499 182.945 138.499 184.083 139.174L190.831 143.054C191.97 143.729 192.012 144.361 190.915 144.994Z" fill="white"/>
<path d="M124.198 198.046C124.03 197.92 123.819 197.92 123.65 198.046L122.807 198.51C122.68 198.594 122.553 198.721 122.469 198.932L121.499 201.04C121.415 201.167 121.499 201.336 121.71 201.42L122.511 201.884C122.764 202.01 122.933 201.968 123.017 201.757L124.03 199.607L134.952 205.89C135.121 206.017 135.332 206.017 135.501 205.89L136.386 205.384C136.555 205.258 136.555 205.173 136.386 205.047L124.198 198.046Z" fill="white"/>
<path d="M208.165 150.14C207.111 150.14 206.141 150.393 205.255 150.899L203.273 152.037C202.388 152.544 201.924 153.134 201.924 153.724C201.924 154.315 202.388 154.905 203.273 155.411L210.148 159.375C211.075 159.924 212.045 160.177 213.1 160.177C214.154 160.177 215.082 159.924 216.01 159.375L217.992 158.237C218.877 157.731 219.341 157.14 219.341 156.55C219.341 155.959 218.877 155.369 217.949 154.863L211.075 150.899C210.148 150.435 209.178 150.14 208.165 150.14ZM216.516 157.646L214.871 158.574C213.774 159.207 212.636 159.207 211.497 158.532L204.749 154.652C203.611 153.977 203.569 153.345 204.665 152.712L206.31 151.784C207.406 151.152 208.545 151.152 209.684 151.827L216.431 155.706C217.612 156.381 217.654 157.014 216.516 157.646Z" fill="white"/>
<path d="M227.774 137.907C226.889 138.413 226.425 139.003 226.425 139.594C226.425 140.184 226.889 140.775 227.774 141.281L234.648 145.245C235.576 145.793 236.546 146.046 237.601 146.046C238.655 146.046 239.583 145.793 240.51 145.245L242.493 144.106C243.378 143.6 243.842 143.01 243.842 142.419C243.842 141.829 243.378 141.238 242.45 140.732L235.576 136.768C234.648 136.262 233.679 135.967 232.666 135.967C231.612 135.967 230.642 136.22 229.756 136.726L227.774 137.907ZM234.269 137.612L241.017 141.492C242.155 142.166 242.197 142.799 241.059 143.431L239.414 144.359C238.318 144.992 237.179 144.992 236.04 144.317L229.293 140.437C228.154 139.762 228.112 139.13 229.208 138.497L230.853 137.569C231.992 136.937 233.088 136.979 234.269 137.612Z" fill="white"/>
<path d="M242.028 133.058L248.902 137.022C249.83 137.57 250.8 137.823 251.854 137.823C252.909 137.823 253.837 137.57 254.764 137.022L256.747 135.883C257.632 135.377 258.096 134.787 258.096 134.197C258.096 133.606 257.632 133.016 256.704 132.51L249.83 128.545C248.902 128.039 247.932 127.744 246.92 127.744C245.866 127.744 244.896 127.997 244.01 128.503L242.028 129.642C241.143 130.148 240.679 130.738 240.679 131.329C240.679 131.919 241.143 132.552 242.028 133.058ZM243.462 130.317L245.107 129.389C246.203 128.756 247.342 128.756 248.481 129.431L255.228 133.311C256.367 133.986 256.409 134.618 255.27 135.251L253.626 136.179C252.529 136.811 251.391 136.811 250.252 136.136L243.504 132.257C242.408 131.582 242.366 130.949 243.462 130.317Z" fill="white"/>
<path d="M180.584 207.325L182.566 206.186C183.452 205.68 183.916 205.09 183.916 204.499C183.916 203.909 183.452 203.318 182.524 202.812L175.65 198.848C174.722 198.342 173.752 198.047 172.698 198.047C171.643 198.047 170.673 198.3 169.788 198.806L167.806 199.945C166.92 200.451 166.456 201.041 166.456 201.632C166.456 202.222 166.92 202.812 167.806 203.318L174.68 207.283C175.608 207.831 176.578 208.084 177.632 208.084C178.728 208.084 179.698 207.831 180.584 207.325ZM169.366 202.517C168.227 201.842 168.185 201.21 169.282 200.577L170.926 199.649C172.023 199.017 173.162 199.017 174.3 199.692L181.048 203.571C182.187 204.246 182.229 204.879 181.09 205.512L179.445 206.439C178.349 207.072 177.21 207.072 176.071 206.397L169.366 202.517Z" fill="white"/>
<path d="M180.877 195.601C181.13 195.727 181.299 195.685 181.384 195.474L182.396 193.323L193.318 199.607C193.487 199.734 193.698 199.734 193.867 199.607L194.752 199.101C194.921 198.975 194.921 198.89 194.752 198.764L182.564 191.721C182.396 191.594 182.185 191.594 182.016 191.721L181.173 192.185C181.046 192.269 180.92 192.396 180.835 192.607L179.865 194.715C179.781 194.842 179.865 195.01 180.076 195.095L180.877 195.601Z" fill="white"/>
<path d="M203.779 193.914L204.664 193.408C204.833 193.281 204.833 193.197 204.664 193.07L192.476 186.028C192.308 185.901 192.097 185.901 191.928 186.028L191.085 186.491C190.958 186.576 190.832 186.702 190.747 186.913L189.777 189.022C189.693 189.148 189.777 189.317 189.988 189.401L190.79 189.865C191.043 189.992 191.211 189.949 191.296 189.739L192.308 187.588L203.231 193.872C203.399 194.04 203.61 194.04 203.779 193.914Z" fill="white"/>
<path d="M219.173 173.712C218.245 173.206 217.275 172.911 216.263 172.911C215.209 172.911 214.239 173.164 213.353 173.67L211.371 174.809C210.485 175.315 210.021 175.905 210.021 176.496C210.021 177.086 210.485 177.677 211.371 178.183L218.245 182.147C219.173 182.695 220.143 182.948 221.197 182.948C222.252 182.948 223.179 182.695 224.107 182.147L226.089 181.008C226.975 180.502 227.439 179.912 227.439 179.321C227.439 178.731 226.975 178.141 226.047 177.634L219.173 173.712ZM224.613 180.418L222.969 181.346C221.872 181.978 220.733 181.978 219.595 181.303L212.847 177.424C211.708 176.749 211.666 176.116 212.763 175.484L214.407 174.556C215.504 173.923 216.643 173.923 217.781 174.598L224.529 178.478C225.71 179.153 225.71 179.785 224.613 180.418Z" fill="white"/>
<path d="M243.885 156.969C242.831 156.969 241.861 157.222 240.975 157.728L238.993 158.867C238.107 159.373 237.644 159.963 237.644 160.553C237.644 161.144 238.107 161.734 238.993 162.24L245.867 166.205C246.795 166.753 247.765 167.006 248.819 167.006C249.874 167.006 250.801 166.753 251.729 166.205L253.711 165.066C254.597 164.56 255.061 163.969 255.061 163.379C255.061 162.789 254.597 162.198 253.669 161.692L246.795 157.728C245.909 157.222 244.939 156.969 243.885 156.969ZM252.235 164.475L250.591 165.403C249.494 166.036 248.355 166.036 247.217 165.361L240.469 161.481C239.33 160.807 239.288 160.174 240.385 159.541L242.029 158.614C243.126 157.981 244.265 157.981 245.403 158.656L252.151 162.536C253.332 163.168 253.374 163.843 252.235 164.475Z" fill="white"/>
<path d="M264.676 144.065L262.694 145.204C261.809 145.71 261.345 146.3 261.345 146.891C261.345 147.481 261.809 148.071 262.694 148.577L269.568 152.542C270.496 153.09 271.466 153.343 272.52 153.343C273.575 153.343 274.503 153.09 275.43 152.542L277.413 151.403C278.298 150.897 278.762 150.307 278.762 149.716C278.762 149.126 278.298 148.535 277.37 148.029L270.496 144.065C269.568 143.559 268.598 143.264 267.586 143.264C266.574 143.264 265.562 143.517 264.676 144.065ZM275.894 148.831C277.033 149.505 277.075 150.138 275.936 150.77L274.292 151.698C273.195 152.331 272.057 152.331 270.918 151.656L264.17 147.776C263.032 147.101 262.989 146.469 264.086 145.836L265.731 144.908C266.827 144.276 267.966 144.276 269.105 144.951L275.894 148.831Z" fill="white"/>
<path d="M188.849 215.591C188.68 215.464 188.469 215.464 188.3 215.591L187.457 216.055C187.33 216.139 187.204 216.266 187.12 216.477L186.15 218.585C186.065 218.712 186.15 218.881 186.36 218.965L187.162 219.429C187.415 219.555 187.583 219.513 187.668 219.302L188.68 217.151L199.603 223.435C199.771 223.562 199.982 223.562 200.151 223.435L201.036 222.929C201.205 222.803 201.205 222.718 201.036 222.592L188.849 215.591Z" fill="white"/>
<path d="M212.294 213.061L205.42 209.097C204.492 208.591 203.522 208.296 202.51 208.296C201.456 208.296 200.486 208.549 199.6 209.055L197.618 210.194C196.732 210.7 196.269 211.29 196.269 211.88C196.269 212.471 196.732 213.061 197.618 213.567L204.492 217.532C205.42 218.08 206.39 218.333 207.444 218.333C208.499 218.333 209.426 218.08 210.354 217.532L212.336 216.393C213.222 215.887 213.686 215.297 213.686 214.706C213.686 214.116 213.222 213.61 212.294 213.061ZM210.86 215.803L209.216 216.73C208.119 217.363 206.98 217.363 205.842 216.688L199.094 212.808C197.955 212.134 197.913 211.501 199.01 210.868L200.654 209.941C201.751 209.308 202.89 209.308 204.028 209.983L210.776 213.863C211.957 214.537 211.957 215.17 210.86 215.803Z" fill="white"/>
<path d="M210.438 205.975C210.691 206.101 210.86 206.059 210.944 205.848L211.956 203.697L222.879 209.981C223.048 210.108 223.259 210.108 223.427 209.981L224.313 209.475C224.482 209.349 224.482 209.264 224.313 209.138L212.125 202.095C211.956 201.968 211.745 201.968 211.577 202.095L210.733 202.559C210.607 202.643 210.48 202.77 210.396 202.98L209.426 205.089C209.342 205.216 209.426 205.384 209.637 205.469L210.438 205.975Z" fill="white"/>
<path d="M230.728 204.92C231.782 204.92 232.71 204.667 233.638 204.119L235.62 202.98C236.505 202.474 236.969 201.884 236.969 201.293C236.969 200.703 236.505 200.112 235.577 199.606L228.703 195.642C227.776 195.136 226.806 194.841 225.793 194.841C224.739 194.841 223.769 195.094 222.883 195.6L220.901 196.739C220.016 197.245 219.552 197.835 219.552 198.426C219.552 199.016 220.016 199.606 220.901 200.112L227.776 204.077C228.703 204.667 229.715 204.92 230.728 204.92ZM222.335 197.413L223.98 196.485C225.076 195.853 226.215 195.853 227.354 196.528L234.101 200.408C235.24 201.082 235.282 201.715 234.144 202.348L232.499 203.275C231.402 203.908 230.264 203.908 229.125 203.233L222.377 199.353C221.281 198.678 221.239 198.046 222.335 197.413Z" fill="white"/>
<path d="M270.034 183.117L270.919 182.611C271.088 182.484 271.088 182.4 270.919 182.273L258.731 175.231C258.563 175.104 258.352 175.104 258.183 175.231L257.34 175.694C257.213 175.779 257.087 175.905 257.002 176.116L256.032 178.225C255.948 178.351 256.032 178.52 256.243 178.604L257.044 179.068C257.298 179.195 257.466 179.153 257.551 178.942L258.563 176.791L269.485 183.075C269.654 183.201 269.865 183.201 270.034 183.117Z" fill="white"/>
<path d="M293.351 169.664L294.237 169.158C294.405 169.031 294.405 168.947 294.237 168.82L282.049 161.778C281.88 161.651 281.669 161.651 281.501 161.778L280.657 162.241C280.531 162.326 280.404 162.452 280.32 162.663L279.35 164.772C279.265 164.898 279.35 165.067 279.561 165.151L280.362 165.615C280.615 165.742 280.784 165.699 280.868 165.489L281.88 163.338L292.803 169.622C292.972 169.79 293.14 169.79 293.351 169.664Z" fill="white"/>
<path d="M289.475 158.109C289.475 158.7 289.938 159.29 290.824 159.796L297.698 163.76C298.626 164.309 299.596 164.562 300.65 164.562C301.705 164.562 302.633 164.309 303.56 163.76L305.542 162.622C306.428 162.116 306.892 161.525 306.892 160.935C306.892 160.344 306.428 159.754 305.5 159.248L298.626 155.284C297.698 154.778 296.728 154.482 295.716 154.482C294.704 154.482 293.692 154.735 292.806 155.242L290.824 156.38C289.896 156.928 289.475 157.477 289.475 158.109ZM292.258 157.055L293.903 156.127C294.999 155.495 296.138 155.495 297.276 156.169L304.024 160.049C305.163 160.724 305.205 161.357 304.066 161.989L302.422 162.917C301.325 163.55 300.186 163.55 299.048 162.875L292.3 158.995C291.161 158.32 291.162 157.687 292.258 157.055Z" fill="white"/>
<path d="M217.567 226.471C217.399 226.344 217.188 226.344 217.019 226.471L216.176 226.935C216.049 227.019 215.923 227.146 215.838 227.356L214.868 229.465C214.784 229.592 214.868 229.76 215.079 229.845L215.88 230.309C216.133 230.435 216.302 230.393 216.386 230.182L217.399 228.031L228.321 234.315C228.49 234.441 228.701 234.441 228.87 234.315L229.755 233.809C229.924 233.682 229.924 233.598 229.755 233.472L217.567 226.471Z" fill="white"/>
<path d="M227.858 220.526C227.69 220.399 227.479 220.399 227.31 220.526L226.467 220.989C226.34 221.074 226.214 221.2 226.129 221.411L225.159 223.52C225.075 223.646 225.159 223.815 225.37 223.899L226.171 224.363C226.424 224.49 226.593 224.448 226.677 224.237L227.69 222.086L238.612 228.37C238.781 228.496 238.992 228.496 239.161 228.37L240.046 227.864C240.215 227.737 240.215 227.653 240.046 227.526L227.858 220.526Z" fill="white"/>
<path d="M248.48 208.632C248.312 208.505 248.101 208.505 247.932 208.632L247.089 209.096C246.962 209.18 246.836 209.307 246.751 209.518L245.781 211.626C245.697 211.753 245.781 211.921 245.992 212.006L246.794 212.47C247.047 212.596 247.215 212.554 247.3 212.343L248.312 210.192L259.234 216.476C259.403 216.603 259.614 216.603 259.783 216.476L260.668 215.97C260.837 215.844 260.837 215.759 260.668 215.633L248.48 208.632Z" fill="white"/>
<path d="M258.813 202.643C258.645 202.516 258.434 202.516 258.265 202.643L257.422 203.107C257.295 203.191 257.169 203.317 257.084 203.528L256.114 205.637C256.03 205.763 256.114 205.932 256.325 206.017L257.126 206.48C257.38 206.607 257.548 206.565 257.633 206.354L258.645 204.203L269.567 210.487C269.736 210.613 269.947 210.613 270.116 210.487L271.001 209.981C271.17 209.854 271.17 209.77 271.001 209.643L258.813 202.643Z" fill="white"/>
<path d="M283.318 188.514C283.15 188.387 282.939 188.387 282.77 188.514L281.927 188.978C281.8 189.062 281.674 189.189 281.589 189.399L280.619 191.508C280.535 191.635 280.619 191.803 280.83 191.888L281.631 192.352C281.884 192.478 282.053 192.436 282.137 192.225L283.15 190.074L294.072 196.358C294.241 196.484 294.452 196.484 294.621 196.358L295.506 195.852C295.675 195.725 295.675 195.641 295.506 195.515L283.318 188.514Z" fill="white"/>
<path d="M293.647 182.527C293.479 182.4 293.268 182.4 293.099 182.527L292.256 182.99C292.129 183.075 292.003 183.201 291.918 183.412L290.948 185.521C290.864 185.647 290.948 185.816 291.159 185.9L291.961 186.364C292.214 186.491 292.382 186.449 292.467 186.238L293.479 184.087L304.401 190.371C304.57 190.497 304.781 190.497 304.95 190.371L305.835 189.865C306.004 189.738 306.004 189.654 305.835 189.527L293.647 182.527Z" fill="white"/>
<path d="M112.474 164.309L113.36 163.803C113.528 163.677 113.528 163.592 113.36 163.466L101.172 156.423C101.003 156.296 100.792 156.296 100.624 156.423L99.7801 156.887C99.6536 156.971 99.5271 157.098 99.4427 157.309L98.4727 159.417C98.3884 159.544 98.4728 159.713 98.6836 159.797L99.4849 160.261C99.738 160.387 99.9066 160.345 99.991 160.134L101.003 157.983L111.926 164.267C112.095 164.394 112.305 164.394 112.474 164.309Z" fill="white"/>
<path d="M110.577 154.06L117.451 158.024C118.379 158.572 119.349 158.825 120.403 158.825C121.458 158.825 122.385 158.572 123.313 158.024L125.295 156.886C126.181 156.379 126.645 155.789 126.645 155.199C126.645 154.608 126.181 154.018 125.253 153.512L118.379 149.547C117.451 149.041 116.481 148.746 115.469 148.746C114.415 148.746 113.445 148.999 112.559 149.505L110.577 150.644C109.691 151.15 109.228 151.74 109.228 152.331C109.228 152.963 109.649 153.554 110.577 154.06ZM112.011 151.319L113.656 150.391C114.752 149.758 115.891 149.758 117.029 150.433L123.777 154.313C124.916 154.988 124.958 155.62 123.819 156.253L122.175 157.181C121.078 157.813 119.939 157.813 118.801 157.139L112.053 153.259C110.957 152.626 110.914 151.951 112.011 151.319Z" fill="white"/>
<path d="M124.03 146.088C124.283 146.215 124.452 146.172 124.536 145.962L125.548 143.811L136.471 150.094C136.639 150.221 136.85 150.221 137.019 150.094L137.905 149.588C138.073 149.462 138.073 149.378 137.905 149.251L125.717 142.208C125.548 142.082 125.337 142.082 125.169 142.208L124.325 142.672C124.199 142.756 124.072 142.883 123.988 143.094L123.018 145.202C122.933 145.329 123.018 145.498 123.229 145.582L124.03 146.088Z" fill="white"/>
<path d="M148.573 131.92C148.826 132.047 148.995 132.004 149.079 131.794L150.091 129.643L161.014 135.926C161.182 136.053 161.393 136.053 161.562 135.926L162.448 135.42C162.616 135.294 162.616 135.21 162.448 135.083L150.26 128.04C150.091 127.914 149.88 127.914 149.711 128.04L148.868 128.504C148.741 128.588 148.615 128.715 148.531 128.926L147.561 131.034C147.476 131.161 147.561 131.33 147.772 131.414L148.573 131.92Z" fill="white"/>
<path d="M120.696 172.28L119.852 172.744C119.726 172.828 119.599 172.955 119.515 173.165L118.545 175.274C118.461 175.401 118.545 175.569 118.756 175.654L119.557 176.118C119.81 176.244 119.979 176.202 120.063 175.991L121.075 173.84L131.998 180.124C132.167 180.25 132.378 180.25 132.546 180.124L133.432 179.618C133.601 179.491 133.601 179.407 133.432 179.281L121.244 172.238C121.033 172.195 120.865 172.196 120.696 172.28Z" fill="white"/>
<path d="M144.397 158.615L143.554 159.078C143.427 159.163 143.3 159.289 143.216 159.5L142.246 161.609C142.162 161.735 142.246 161.904 142.457 161.988L143.258 162.452C143.511 162.579 143.68 162.537 143.764 162.326L144.777 160.175L155.699 166.459C155.868 166.585 156.079 166.585 156.248 166.459L157.133 165.953C157.302 165.826 157.302 165.742 157.133 165.615L144.945 158.572C144.777 158.488 144.566 158.488 144.397 158.615Z" fill="white"/>
<path d="M192.392 131.246C192.223 131.12 192.012 131.12 191.843 131.246L191 131.71C190.873 131.795 190.747 131.921 190.662 132.132L189.692 134.241C189.608 134.367 189.692 134.536 189.903 134.62L190.705 135.084C190.958 135.211 191.126 135.168 191.211 134.957L192.223 132.807L203.146 139.09C203.314 139.217 203.525 139.217 203.694 139.09L204.579 138.584C204.748 138.458 204.748 138.373 204.579 138.247L192.392 131.246Z" fill="white"/>
<path d="M201.376 129.095L208.25 133.059C209.178 133.608 210.148 133.86 211.202 133.86C212.257 133.86 213.227 133.608 214.112 133.059L216.094 131.921C216.98 131.414 217.444 130.824 217.444 130.234C217.444 129.643 216.98 129.053 216.052 128.547L209.178 124.583C208.25 124.076 207.28 123.781 206.226 123.781C205.172 123.781 204.202 124.034 203.316 124.54L201.334 125.679C200.448 126.185 199.984 126.776 199.984 127.366C199.984 127.999 200.448 128.589 201.376 129.095ZM202.81 126.354L204.455 125.426C205.551 124.793 206.69 124.793 207.829 125.468L214.576 129.348C215.715 130.023 215.757 130.655 214.618 131.288L212.974 132.216C211.877 132.848 210.738 132.848 209.6 132.174L202.852 128.294C201.713 127.661 201.714 126.986 202.81 126.354Z" fill="white"/>
<path d="M215.162 121.122L222.036 125.087C222.964 125.635 223.934 125.888 224.988 125.888C226.043 125.888 226.97 125.635 227.898 125.087L229.88 123.948C230.766 123.442 231.23 122.851 231.23 122.261C231.23 121.671 230.766 121.08 229.838 120.574L222.964 116.61C222.036 116.104 221.066 115.809 220.054 115.809C219 115.809 218.03 116.062 217.144 116.568L215.162 117.706C214.276 118.212 213.812 118.803 213.812 119.393C213.813 120.026 214.276 120.616 215.162 121.122ZM216.596 118.381L218.241 117.453C219.337 116.821 220.476 116.821 221.614 117.496L228.362 121.375C229.501 122.05 229.543 122.683 228.404 123.315L226.76 124.243C225.663 124.876 224.524 124.876 223.386 124.201L216.638 120.321C215.542 119.646 215.499 119.014 216.596 118.381Z" fill="white"/>
<path d="M146.298 199.65L148.28 198.511C149.166 198.005 149.629 197.415 149.629 196.825C149.629 196.234 149.166 195.644 148.238 195.137L141.364 191.173C140.436 190.667 139.466 190.372 138.411 190.372C137.357 190.372 136.387 190.625 135.502 191.131L133.519 192.27C132.634 192.776 132.17 193.366 132.17 193.957C132.17 194.547 132.634 195.138 133.519 195.644L140.394 199.608C141.321 200.156 142.291 200.409 143.346 200.409C144.442 200.451 145.412 200.198 146.298 199.65ZM135.08 194.884C133.941 194.21 133.899 193.577 134.995 192.945L136.64 192.017C137.737 191.384 138.875 191.384 140.014 192.059L146.762 195.939C147.9 196.614 147.942 197.246 146.804 197.879L145.159 198.807C144.063 199.439 142.924 199.439 141.785 198.764L135.08 194.884Z" fill="white"/>
<path d="M147.01 187.714C147.263 187.841 147.432 187.798 147.516 187.588L148.528 185.437L159.451 191.72C159.62 191.847 159.831 191.847 159.999 191.72L160.885 191.214C161.054 191.088 161.054 191.004 160.885 190.877L148.697 183.834C148.529 183.708 148.318 183.708 148.149 183.834L147.305 184.298C147.179 184.382 147.052 184.509 146.968 184.72L145.998 186.829C145.914 186.955 145.998 187.124 146.209 187.208L147.01 187.714Z" fill="white"/>
<path d="M167.933 186.281C168.987 186.281 169.915 186.027 170.843 185.479L172.825 184.34C173.71 183.834 174.174 183.244 174.174 182.654C174.174 182.063 173.71 181.473 172.783 180.967L165.908 177.002C164.981 176.496 164.011 176.201 162.998 176.201C161.944 176.201 160.974 176.454 160.089 176.96L158.106 178.099C157.221 178.605 156.757 179.195 156.757 179.786C156.757 180.376 157.221 180.967 158.106 181.473L164.981 185.437C165.908 186.027 166.878 186.281 167.933 186.281ZM159.54 178.774L161.185 177.846C162.281 177.213 163.42 177.213 164.559 177.888L171.306 181.768C172.445 182.443 172.487 183.075 171.349 183.708L169.704 184.636C168.607 185.268 167.469 185.268 166.33 184.594L159.582 180.714C158.486 180.039 158.444 179.406 159.54 178.774Z" fill="white"/>
<path d="M184.547 177.592L185.433 177.085C185.602 176.959 185.602 176.875 185.433 176.748L173.245 169.705C173.076 169.579 172.866 169.579 172.697 169.705L171.853 170.169C171.727 170.254 171.6 170.38 171.516 170.591L170.546 172.7C170.462 172.826 170.546 172.995 170.757 173.079L171.558 173.543C171.811 173.669 171.98 173.627 172.064 173.416L173.076 171.266L183.999 177.549C184.168 177.676 184.379 177.676 184.547 177.592Z" fill="white"/>
<path d="M183.029 163.76L182.185 164.224C182.059 164.308 181.932 164.435 181.848 164.646L180.878 166.754C180.794 166.881 180.878 167.05 181.089 167.134L181.89 167.598C182.143 167.724 182.312 167.682 182.396 167.471L183.408 165.321L194.331 171.604C194.5 171.731 194.711 171.731 194.879 171.604L195.765 171.098C195.934 170.972 195.934 170.887 195.765 170.761L183.577 163.718C183.366 163.634 183.198 163.634 183.029 163.76Z" fill="white"/>
<path d="M205.17 165.657L206.056 165.151C206.225 165.024 206.225 164.94 206.056 164.814L193.868 157.771C193.699 157.644 193.489 157.644 193.32 157.771L192.476 158.235C192.35 158.319 192.223 158.445 192.139 158.656L191.169 160.765C191.085 160.891 191.169 161.06 191.38 161.144L192.181 161.608C192.434 161.735 192.603 161.693 192.687 161.482L193.699 159.331L204.622 165.615C204.791 165.783 205.002 165.783 205.17 165.657Z" fill="white"/>
<path d="M218.411 143.644C218.242 143.517 218.031 143.517 217.863 143.644L217.019 144.108C216.893 144.192 216.766 144.318 216.682 144.529L215.712 146.638C215.628 146.764 215.712 146.933 215.923 147.018L216.724 147.481C216.977 147.608 217.146 147.566 217.23 147.355L218.242 145.204L229.165 151.488C229.334 151.614 229.545 151.614 229.713 151.488L230.599 150.982C230.768 150.855 230.768 150.771 230.599 150.644L218.411 143.644Z" fill="white"/>
<path d="M255.482 125.086C255.735 125.213 255.904 125.171 255.988 124.96L257 122.809L267.923 129.093C268.092 129.219 268.302 129.219 268.471 129.093L269.357 128.586C269.525 128.46 269.525 128.376 269.357 128.249L257.169 121.206C257 121.08 256.789 121.08 256.621 121.206L255.777 121.67C255.651 121.755 255.524 121.881 255.44 122.092L254.47 124.201C254.385 124.327 254.47 124.496 254.681 124.58L255.482 125.086Z" fill="white"/>
<path d="M145.075 213.439C144.906 213.312 144.696 213.312 144.527 213.439L143.683 213.902C143.557 213.987 143.43 214.113 143.346 214.324L142.376 216.433C142.292 216.559 142.376 216.728 142.587 216.812L143.388 217.276C143.641 217.403 143.81 217.361 143.894 217.15L144.906 214.999L155.829 221.283C155.998 221.409 156.209 221.409 156.377 221.283L157.263 220.777C157.432 220.65 157.432 220.566 157.263 220.439L145.075 213.439Z" fill="white"/>
<path d="M168.732 210.783L161.858 206.819C160.93 206.313 159.96 206.018 158.906 206.018C157.851 206.018 156.881 206.271 155.996 206.777L154.014 207.915C153.128 208.421 152.664 209.012 152.664 209.602C152.664 210.193 153.128 210.783 154.014 211.289L160.888 215.253C161.816 215.802 162.786 216.055 163.84 216.055C164.894 216.055 165.864 215.802 166.75 215.253L168.732 214.115C169.618 213.609 170.081 213.018 170.081 212.428C170.124 211.88 169.66 211.289 168.732 210.783ZM167.298 213.524L165.653 214.452C164.557 215.085 163.418 215.085 162.279 214.41L155.532 210.53C154.393 209.855 154.351 209.223 155.447 208.59L157.092 207.662C158.189 207.03 159.327 207.03 160.466 207.704L167.214 211.584C168.394 212.217 168.394 212.892 167.298 213.524Z" fill="white"/>
<path d="M213.688 188.219L214.574 187.713C214.742 187.587 214.742 187.502 214.574 187.376L202.386 180.333C202.217 180.207 202.006 180.207 201.837 180.333L200.994 180.797C200.867 180.881 200.741 181.008 200.657 181.219L199.687 183.327C199.602 183.454 199.687 183.623 199.897 183.707L200.699 184.171C200.952 184.297 201.12 184.255 201.205 184.044L202.217 181.894L213.14 188.177C213.308 188.304 213.477 188.304 213.688 188.219Z" fill="white"/>
<path d="M230.051 164.94C228.997 164.94 228.027 165.193 227.141 165.7L225.159 166.838C224.273 167.344 223.81 167.935 223.81 168.525C223.81 169.115 224.273 169.706 225.159 170.212L232.033 174.176C232.961 174.725 233.931 174.977 234.985 174.977C236.04 174.977 236.967 174.725 237.895 174.176L239.877 173.038C240.763 172.531 241.227 171.941 241.227 171.351C241.227 170.76 240.763 170.17 239.835 169.664L232.961 165.7C232.075 165.193 231.105 164.94 230.051 164.94ZM238.444 172.447L236.799 173.375C235.702 174.008 234.564 174.008 233.425 173.333L226.677 169.453C225.539 168.778 225.496 168.145 226.593 167.513L228.238 166.585C229.334 165.953 230.473 165.953 231.611 166.627L238.359 170.507C239.54 171.14 239.54 171.815 238.444 172.447Z" fill="white"/>
<path d="M252.528 154.397L253.54 152.246L264.463 158.53C264.632 158.657 264.842 158.657 265.011 158.53L265.897 158.024C266.066 157.897 266.066 157.813 265.897 157.687L253.709 150.644C253.54 150.517 253.329 150.517 253.161 150.644L252.317 151.108C252.191 151.192 252.064 151.318 251.98 151.529L251.01 153.638C250.926 153.764 251.01 153.933 251.221 154.017L252.022 154.481C252.275 154.65 252.444 154.608 252.528 154.397Z" fill="white"/>
<path d="M276.524 140.608L283.399 144.572C284.326 145.12 285.296 145.373 286.351 145.373C287.405 145.373 288.333 145.12 289.26 144.572L291.243 143.433C292.128 142.927 292.592 142.337 292.592 141.746C292.592 141.156 292.128 140.565 291.201 140.059L284.326 136.095C283.399 135.589 282.429 135.294 281.416 135.294C280.362 135.294 279.392 135.547 278.506 136.053L276.524 137.192C275.639 137.698 275.175 138.288 275.175 138.879C275.175 139.511 275.639 140.059 276.524 140.608ZM277.958 137.866L279.603 136.939C280.7 136.306 281.838 136.306 282.977 136.981L289.724 140.861C290.863 141.535 290.905 142.168 289.767 142.801L288.122 143.729C287.025 144.361 285.887 144.361 284.748 143.686L278 139.806C276.904 139.132 276.862 138.499 277.958 137.866Z" fill="white"/>
<path d="M179.15 221.198C178.982 221.072 178.771 221.072 178.602 221.198L177.759 221.662C177.632 221.747 177.506 221.873 177.421 222.084L176.451 224.193C176.367 224.319 176.451 224.488 176.662 224.572L177.463 225.036C177.716 225.163 177.885 225.12 177.969 224.91L178.982 222.759L189.904 229.042C190.073 229.169 190.284 229.169 190.453 229.042L191.338 228.536C191.507 228.41 191.507 228.326 191.338 228.199L179.15 221.198Z" fill="white"/>
<path d="M246.751 196.569L247.636 196.063C247.805 195.936 247.805 195.852 247.636 195.726L235.448 188.683C235.279 188.556 235.069 188.556 234.9 188.683L234.056 189.147C233.93 189.231 233.803 189.358 233.719 189.569L232.749 191.677C232.665 191.804 232.749 191.972 232.96 192.057L233.761 192.521C234.014 192.647 234.183 192.605 234.267 192.394L235.28 190.243L246.202 196.527C246.371 196.654 246.54 196.654 246.751 196.569Z" fill="white"/>
<path d="M254.051 191.468C255.105 191.468 256.033 191.215 256.961 190.667L258.943 189.528C259.828 189.022 260.292 188.432 260.292 187.841C260.292 187.251 259.828 186.66 258.901 186.154L252.026 182.19C251.099 181.684 250.129 181.389 249.117 181.389C248.062 181.389 247.092 181.642 246.207 182.148L244.224 183.286C243.339 183.792 242.875 184.383 242.875 184.973C242.875 185.564 243.339 186.154 244.224 186.66L251.099 190.625C252.026 191.215 252.996 191.468 254.051 191.468ZM245.658 183.961L247.303 183.033C248.4 182.401 249.538 182.401 250.677 183.076L257.425 186.956C258.563 187.63 258.605 188.263 257.467 188.895L255.822 189.823C254.726 190.456 253.587 190.456 252.448 189.781L245.701 185.901C244.562 185.226 244.562 184.594 245.658 183.961Z" fill="white"/>
<path d="M277.327 178.014C278.381 178.014 279.309 177.761 280.237 177.213L282.219 176.074C283.105 175.568 283.569 174.977 283.569 174.387C283.569 173.797 283.105 173.206 282.177 172.7L275.303 168.736C274.375 168.23 273.405 167.935 272.393 167.935C271.339 167.935 270.369 168.188 269.483 168.694L267.501 169.832C266.615 170.338 266.151 170.929 266.151 171.519C266.151 172.11 266.615 172.7 267.501 173.206L274.375 177.17C275.303 177.761 276.315 178.014 277.327 178.014ZM268.935 170.507L270.579 169.579C271.676 168.947 272.815 168.947 273.953 169.621L280.701 173.501C281.84 174.176 281.882 174.809 280.743 175.441L279.098 176.369C278.002 177.002 276.863 177.002 275.725 176.327L268.977 172.447C267.88 171.772 267.838 171.14 268.935 170.507Z" fill="white"/>
<path d="M238.191 214.577C238.023 214.451 237.812 214.451 237.643 214.577L236.8 215.041C236.673 215.125 236.547 215.252 236.462 215.463L235.492 217.572C235.408 217.698 235.492 217.867 235.703 217.951L236.504 218.415C236.757 218.542 236.926 218.499 237.011 218.289L238.023 216.138L248.945 222.421C249.114 222.548 249.325 222.548 249.494 222.421L250.379 221.915C250.548 221.789 250.548 221.705 250.379 221.578L238.191 214.577Z" fill="white"/>
<path d="M282.852 199.775L275.978 195.811C275.05 195.305 274.08 195.01 273.068 195.01C272.013 195.01 271.043 195.263 270.158 195.769L268.176 196.908C267.29 197.414 266.826 198.004 266.826 198.594C266.826 199.185 267.29 199.775 268.176 200.281L275.05 204.246C275.978 204.794 276.948 205.047 278.002 205.047C279.056 205.047 279.984 204.794 280.912 204.246L282.894 203.107C283.78 202.601 284.243 202.011 284.243 201.42C284.243 200.872 283.78 200.281 282.852 199.775ZM281.46 202.517L279.815 203.444C278.719 204.077 277.58 204.077 276.442 203.402L269.694 199.522C268.555 198.848 268.513 198.215 269.609 197.582L271.254 196.655C272.351 196.022 273.489 196.022 274.628 196.697L281.376 200.577C282.514 201.209 282.556 201.884 281.46 202.517Z" fill="white"/>
<path d="M317.728 179.659L310.854 175.695C309.926 175.189 308.956 174.894 307.902 174.894C306.847 174.894 305.877 175.147 304.992 175.653L303.01 176.791C302.124 177.297 301.66 177.888 301.66 178.478C301.66 179.069 302.124 179.659 303.01 180.165L309.884 184.129C310.812 184.678 311.782 184.931 312.836 184.931C313.89 184.931 314.86 184.678 315.746 184.129L317.728 182.991C318.614 182.485 319.078 181.894 319.078 181.304C319.12 180.756 318.656 180.165 317.728 179.659ZM316.294 182.4L314.649 183.328C313.553 183.961 312.414 183.961 311.276 183.286L304.528 179.406C303.389 178.731 303.347 178.099 304.444 177.466L306.088 176.538C307.185 175.906 308.323 175.906 309.462 176.58L316.21 180.46C317.391 181.093 317.391 181.768 316.294 182.4Z" fill="white"/>
</g>
</g>
<path d="M318.701 166.374L318.617 189.527C318.575 206.058 307.736 222.548 286.101 235.115C242.537 260.419 171.434 260.419 127.616 235.115C105.56 222.379 94.5527 205.637 94.5948 188.894L94.6792 165.741C94.637 182.484 105.644 199.226 127.7 211.963C171.518 237.266 242.621 237.266 286.186 211.963C307.82 199.353 318.659 182.863 318.701 166.374Z" fill="#F16624"/>
<path d="M285.678 120.153C329.496 145.456 329.749 186.659 286.185 211.963C242.62 237.266 171.517 237.266 127.699 211.963C83.8395 186.659 83.6287 145.456 127.151 120.153C170.715 94.8489 241.819 94.8489 285.678 120.153ZM131.031 210.023C173.035 234.272 241.102 234.272 282.811 210.023C324.52 185.774 324.309 146.342 282.347 122.093C240.343 97.8432 172.234 97.8432 130.525 122.093C88.816 146.3 89.0268 185.774 131.031 210.023Z" fill="#D85627"/>
<path d="M306.343 245.783C306.343 251.519 310.391 253.839 315.326 250.971C320.302 248.103 324.308 241.102 324.308 235.367C324.308 229.631 320.26 227.312 315.326 230.18C310.349 233.047 306.343 240.048 306.343 245.783Z" fill="#693594"/>
<path d="M321.736 229.589L292.594 212.762C290.949 211.792 288.672 211.919 286.184 213.352C281.208 216.22 277.201 223.221 277.201 228.956C277.201 231.782 278.171 233.806 279.774 234.734L308.915 251.561C307.312 250.591 306.343 248.609 306.343 245.783C306.343 240.048 310.391 233.047 315.325 230.18C317.856 228.746 320.133 228.619 321.736 229.589Z" fill="#D85627"/>
<path d="M328.824 223.347C326.041 221.702 322.161 221.871 317.902 224.359C309.425 229.251 302.593 241.144 302.593 250.886C302.593 255.694 304.28 259.11 306.979 260.754L396.975 312.753L418.863 275.346L328.824 223.347Z" fill="#F16624"/>
<path d="M392.588 302.885C392.588 312.669 399.462 316.633 407.897 311.741C416.373 306.849 423.205 294.956 423.205 285.214C423.205 278.804 420.253 274.882 415.825 274.334C413.506 274.038 410.807 274.671 407.897 276.358C399.462 281.25 392.588 293.1 392.588 302.885Z" fill="#D85627"/>
<path d="M99.4878 120.487L98.6865 120.023C98.4756 119.897 98.4335 119.77 98.4756 119.644L99.4456 117.535C99.5299 117.324 99.6565 117.198 99.783 117.113L100.626 116.65C100.795 116.523 101.006 116.523 101.175 116.65L113.363 123.692C113.531 123.819 113.531 123.903 113.363 124.03L112.477 124.536C112.308 124.662 112.097 124.62 111.929 124.536L101.006 118.252L99.9939 120.403C99.9095 120.572 99.7408 120.614 99.4878 120.487Z" fill="white"/>
<path d="M125.299 99.6968L123.317 100.835C122.432 101.342 121.462 101.595 120.407 101.637C119.353 101.637 118.383 101.384 117.455 100.835L110.581 96.8712C109.653 96.3651 109.231 95.7747 109.231 95.1843C109.231 94.5939 109.695 94.0035 110.581 93.4974L112.563 92.3587C113.449 91.8526 114.419 91.5996 115.473 91.5996C116.527 91.5996 117.497 91.8527 118.383 92.4009L125.257 96.3652C126.185 96.9134 126.649 97.4616 126.649 98.052C126.649 98.6003 126.185 99.1486 125.299 99.6968ZM122.221 99.992L123.865 99.0641C124.962 98.4316 124.962 97.7568 123.823 97.1242L117.076 93.2444C115.937 92.5696 114.798 92.5696 113.702 93.2022L112.057 94.13C110.961 94.7626 111.003 95.3951 112.141 96.0699L118.889 99.9499C119.985 100.582 121.124 100.625 122.221 99.992Z" fill="white"/>
<path d="M124.035 76.459L123.233 75.995C123.023 75.8685 122.98 75.742 123.023 75.6155L123.993 73.5068C124.077 73.296 124.203 73.1696 124.33 73.0852L125.173 72.6213C125.342 72.4947 125.553 72.4947 125.722 72.6213L137.91 79.6642C138.078 79.7907 138.078 79.875 137.91 80.0015L137.024 80.5075C136.855 80.6341 136.644 80.5919 136.476 80.5075L125.553 74.2238L124.541 76.3747C124.456 76.5434 124.246 76.5855 124.035 76.459Z" fill="white"/>
<path d="M148.576 92.6543L147.774 92.1905C147.564 92.0639 147.521 91.9373 147.564 91.8108L148.533 89.7022C148.618 89.4913 148.744 89.3649 148.871 89.2805L149.714 88.8166C149.883 88.6901 150.094 88.6901 150.263 88.8166L162.451 95.8595C162.619 95.986 162.619 96.0703 162.451 96.1968L161.565 96.7029C161.396 96.8294 161.185 96.8294 161.017 96.7029L150.094 90.4192L149.082 92.57C148.955 92.7809 148.787 92.823 148.576 92.6543Z" fill="white"/>
<path d="M198.891 65.3266L196.909 66.4653C196.023 66.9714 195.053 67.2245 193.999 67.2666C192.945 67.2666 191.975 67.0136 191.047 66.4653L184.173 62.5011C183.245 61.995 182.823 61.4046 182.823 60.8142C182.823 60.2238 183.287 59.6333 184.173 59.1272L186.155 57.9886C187.04 57.4825 188.01 57.2295 189.065 57.2295C190.119 57.2295 191.089 57.4825 192.017 58.0308L198.891 61.995C199.819 62.5433 200.283 63.0915 200.283 63.6819C200.241 64.2723 199.819 64.8205 198.891 65.3266ZM195.812 65.664L197.457 64.7362C198.554 64.1037 198.554 63.4289 197.415 62.7963L190.667 58.9164C189.529 58.2416 188.39 58.2416 187.294 58.8742L185.649 59.802C184.552 60.4346 184.595 61.0672 185.733 61.742L192.481 65.6218C193.619 66.2544 194.716 66.2966 195.812 65.664Z" fill="white"/>
<path d="M119.521 157.307L118.72 156.843C118.509 156.716 118.467 156.59 118.509 156.463L119.479 154.355C119.563 154.144 119.69 154.017 119.816 153.933L120.66 153.469C120.828 153.342 121.039 153.342 121.208 153.469L133.396 160.512C133.565 160.638 133.565 160.723 133.396 160.849L132.51 161.355C132.341 161.482 132.131 161.44 131.962 161.355L121.039 155.071L120.027 157.222C119.943 157.391 119.774 157.433 119.521 157.307Z" fill="white"/>
<path d="M143.263 101.468L142.462 101.004C142.251 100.877 142.209 100.751 142.251 100.624L143.221 98.5158C143.305 98.3049 143.432 98.1784 143.558 98.094L144.402 97.63C144.571 97.5035 144.781 97.5035 144.95 97.63L157.138 104.673C157.307 104.799 157.307 104.884 157.138 105.01L156.252 105.516C156.084 105.643 155.873 105.601 155.704 105.516L144.781 99.2326L143.769 101.383C143.643 101.552 143.474 101.594 143.263 101.468Z" fill="white"/>
<path d="M190.666 124.496L189.864 124.032C189.653 123.905 189.611 123.779 189.653 123.652L190.623 121.544C190.708 121.333 190.834 121.206 190.961 121.122L191.804 120.658C191.973 120.531 192.184 120.574 192.352 120.658L204.54 127.701C204.709 127.827 204.709 127.912 204.54 128.038L203.655 128.544C203.486 128.671 203.275 128.671 203.106 128.544L192.184 122.26L191.172 124.411C191.087 124.622 190.919 124.664 190.666 124.496Z" fill="white"/>
<path d="M216.053 93.5826L214.071 94.7212C213.185 95.2273 212.215 95.4803 211.161 95.5225C210.107 95.5225 209.137 95.2694 208.209 94.7212L201.335 90.7569C200.407 90.2509 199.985 89.6605 199.985 89.0701C199.985 88.4796 200.449 87.8893 201.335 87.3832L203.317 86.2446C204.203 85.7385 205.173 85.4854 206.227 85.4854C207.281 85.4854 208.251 85.7384 209.179 86.2866L216.053 90.2509C216.981 90.7991 217.445 91.3475 217.445 91.9379C217.403 92.5283 216.981 93.0765 216.053 93.5826ZM212.975 93.9199L214.619 92.9922C215.716 92.3596 215.716 91.6848 214.577 91.0522L207.829 87.1724C206.691 86.4976 205.552 86.4976 204.456 87.1302L202.811 88.058C201.714 88.6905 201.757 89.3231 202.895 89.9979L209.643 93.8778C210.782 94.5104 211.878 94.5525 212.975 93.9199Z" fill="white"/>
<path d="M229.887 8.09723L227.905 9.23585C227.019 9.74192 226.049 9.99497 224.995 10.0371C223.941 10.0371 222.971 9.78409 222.043 9.23585L215.169 5.2716C214.241 4.76552 213.819 4.17513 213.819 3.58471C213.819 2.99429 214.283 2.4039 215.169 1.89783L217.151 0.759079C218.037 0.253006 219.007 0 220.061 0C221.115 0 222.085 0.253047 222.971 0.801293L229.845 4.76554C230.773 5.31379 231.237 5.86201 231.237 6.45243C231.237 7.00068 230.773 7.54898 229.887 8.09723ZM226.808 8.39234L228.453 7.46454C229.55 6.83194 229.55 6.15722 228.411 5.52462L221.663 1.6448C220.525 0.970036 219.386 0.969994 218.29 1.60259L216.645 2.53039C215.548 3.16298 215.591 3.79554 216.729 4.4703L223.477 8.35026C224.573 8.98285 225.712 9.02493 226.808 8.39234Z" fill="white"/>
<path d="M243.676 84.6841L241.694 85.8228C240.808 86.3288 239.839 86.5819 238.784 86.6241C237.73 86.6241 236.76 86.371 235.832 85.8228L228.958 81.8585C228.03 81.3524 227.608 80.762 227.608 80.1716C227.608 79.5812 228.072 78.9908 228.958 78.4847L230.94 77.346C231.826 76.8399 232.796 76.5869 233.85 76.5869C234.904 76.5869 235.874 76.84 236.76 77.3882L243.634 81.3525C244.562 81.9007 245.026 82.4489 245.026 83.0393C245.026 83.6298 244.604 84.1781 243.676 84.6841ZM240.64 84.9793L242.285 84.0514C243.381 83.4189 243.381 82.7441 242.242 82.1115L235.495 78.2317C234.356 77.5569 233.217 77.5569 232.121 78.1895L230.476 79.1173C229.38 79.7499 229.422 80.3825 230.56 81.0572L237.308 84.9372C238.405 85.6119 239.543 85.6118 240.64 84.9793Z" fill="white"/>
<path d="M148.285 187.964L146.302 189.103C145.417 189.609 144.447 189.862 143.393 189.904C142.338 189.904 141.368 189.651 140.44 189.103L133.566 185.139C132.638 184.633 132.217 184.042 132.217 183.452C132.217 182.861 132.681 182.271 133.566 181.765L135.548 180.626C136.434 180.12 137.404 179.867 138.458 179.867C139.513 179.867 140.483 180.12 141.41 180.668L148.285 184.633C149.212 185.181 149.676 185.729 149.676 186.32C149.634 186.91 149.17 187.458 148.285 187.964ZM145.206 188.302L146.851 187.374C147.947 186.741 147.947 186.067 146.809 185.434L140.061 181.554C138.922 180.879 137.784 180.879 136.687 181.512L135.042 182.44C133.946 183.072 133.988 183.705 135.127 184.38L141.874 188.26C143.013 188.892 144.11 188.934 145.206 188.302Z" fill="white"/>
<path d="M147.015 177.168L146.214 176.704C146.003 176.577 145.961 176.451 146.003 176.324L146.973 174.216C147.057 174.005 147.184 173.878 147.31 173.794L148.154 173.33C148.322 173.204 148.533 173.204 148.702 173.33L160.89 180.373C161.059 180.5 161.059 180.584 160.89 180.71L160.004 181.217C159.836 181.343 159.625 181.343 159.456 181.217L148.533 174.933L147.521 177.084C147.437 177.252 147.268 177.294 147.015 177.168Z" fill="white"/>
<path d="M172.826 173.794L170.844 174.933C169.958 175.439 168.988 175.692 167.934 175.734C166.879 175.734 165.909 175.481 164.982 174.933L158.107 170.969C157.18 170.463 156.758 169.872 156.758 169.282C156.758 168.692 157.222 168.101 158.107 167.595L160.089 166.456C160.975 165.95 161.945 165.697 162.999 165.697C164.054 165.697 165.024 165.95 165.909 166.499L172.783 170.463C173.711 171.011 174.175 171.559 174.175 172.15C174.175 172.74 173.711 173.288 172.826 173.794ZM169.747 174.132L171.392 173.204C172.488 172.571 172.488 171.897 171.35 171.264L164.602 167.384C163.463 166.709 162.325 166.709 161.228 167.342L159.583 168.27C158.487 168.902 158.529 169.535 159.668 170.21L166.415 174.09C167.512 174.722 168.651 174.764 169.747 174.132Z" fill="white"/>
<path d="M171.561 162.997L170.76 162.533C170.549 162.407 170.507 162.28 170.549 162.154L171.519 160.045C171.603 159.834 171.73 159.708 171.856 159.623L172.7 159.159C172.868 159.033 173.079 159.033 173.248 159.159L185.436 166.202C185.605 166.329 185.605 166.413 185.436 166.54L184.55 167.046C184.382 167.172 184.171 167.172 184.002 167.046L173.079 160.762L172.067 162.913C171.983 163.081 171.814 163.124 171.561 162.997Z" fill="white"/>
<path d="M181.854 29.7754L181.053 29.3116C180.842 29.185 180.8 29.0585 180.842 28.932L181.812 26.8234C181.896 26.6547 182.023 26.486 182.149 26.4016L182.993 25.9377C183.161 25.8111 183.372 25.8111 183.541 25.9377L195.729 32.9806C195.898 33.1071 195.898 33.1914 195.729 33.3179L194.843 33.824C194.675 33.9505 194.464 33.9505 194.295 33.824L183.372 27.5402L182.36 29.6911C182.276 29.8598 182.107 29.9019 181.854 29.7754Z" fill="white"/>
<path d="M192.186 151.105L191.385 150.642C191.174 150.515 191.132 150.388 191.174 150.262L192.144 148.153C192.228 147.942 192.355 147.816 192.481 147.732L193.325 147.268C193.493 147.141 193.704 147.141 193.873 147.268L206.061 154.311C206.23 154.437 206.23 154.521 206.061 154.648L205.175 155.154C205.007 155.281 204.796 155.238 204.627 155.154L193.704 148.87L192.692 151.021C192.608 151.19 192.397 151.232 192.186 151.105Z" fill="white"/>
<path d="M216.728 136.934L215.927 136.47C215.716 136.344 215.674 136.217 215.716 136.091L216.686 133.982C216.77 133.771 216.897 133.645 217.023 133.56L217.867 133.096C218.035 132.97 218.246 133.012 218.415 133.096L230.603 140.139C230.772 140.266 230.772 140.35 230.603 140.477L229.717 140.983C229.549 141.109 229.338 141.109 229.169 140.983L218.246 134.699L217.234 136.85C217.108 137.019 216.939 137.061 216.728 136.934Z" fill="white"/>
<path d="M255.487 54.109L254.685 53.645C254.475 53.5185 254.432 53.392 254.475 53.2655L255.445 51.1568C255.529 50.946 255.655 50.8194 255.782 50.7351L256.625 50.2713C256.794 50.1447 257.005 50.1869 257.174 50.2713L269.362 57.314C269.53 57.4406 269.53 57.525 269.362 57.6515L268.476 58.1575C268.307 58.2841 268.096 58.2841 267.928 58.1575L257.005 51.8738L255.993 54.0246C255.909 54.1933 255.74 54.2355 255.487 54.109Z" fill="white"/>
<path d="M143.349 206.732L142.548 206.268C142.337 206.142 142.295 206.015 142.337 205.889L143.307 203.78C143.391 203.569 143.518 203.442 143.644 203.358L144.488 202.894C144.657 202.768 144.867 202.81 145.036 202.894L157.224 209.937C157.393 210.064 157.393 210.148 157.224 210.275L156.338 210.781C156.17 210.907 155.959 210.907 155.79 210.781L144.867 204.497L143.855 206.648C143.771 206.816 143.602 206.858 143.349 206.732Z" fill="white"/>
<path d="M168.737 203.61L166.755 204.749C165.869 205.255 164.899 205.508 163.845 205.55C162.79 205.55 161.82 205.297 160.893 204.749L154.018 200.784C153.091 200.278 152.669 199.688 152.669 199.097C152.669 198.507 153.133 197.916 154.018 197.41L156.001 196.272C156.886 195.766 157.856 195.513 158.91 195.513C159.965 195.513 160.935 195.766 161.863 196.314L168.737 200.278C169.665 200.826 170.128 201.375 170.128 201.965C170.086 202.513 169.665 203.104 168.737 203.61ZM165.658 203.905L167.303 202.977C168.399 202.345 168.399 201.67 167.261 201.037L160.513 197.157C159.374 196.483 158.236 196.483 157.139 197.115L155.495 198.043C154.398 198.676 154.44 199.308 155.579 199.983L162.326 203.863C163.465 204.538 164.562 204.538 165.658 203.905Z" fill="white"/>
<path d="M200.704 173.626L199.902 173.162C199.691 173.035 199.649 172.909 199.691 172.782L200.661 170.673C200.746 170.463 200.872 170.336 200.999 170.252L201.842 169.788C202.011 169.661 202.222 169.704 202.391 169.788L214.578 176.831C214.747 176.957 214.747 177.042 214.578 177.168L213.693 177.674C213.524 177.801 213.313 177.801 213.145 177.674L202.222 171.39L201.21 173.541C201.083 173.71 200.914 173.752 200.704 173.626Z" fill="white"/>
<path d="M239.882 162.534L237.9 163.672C237.015 164.178 236.045 164.431 234.99 164.474C233.936 164.474 232.966 164.221 232.038 163.672L225.164 159.708C224.236 159.202 223.814 158.612 223.814 158.021C223.814 157.431 224.278 156.84 225.164 156.334L227.146 155.196C228.032 154.69 229.002 154.437 230.056 154.437C231.11 154.437 232.08 154.69 232.966 155.238L239.84 159.202C240.768 159.75 241.232 160.299 241.232 160.889C241.232 161.479 240.768 162.028 239.882 162.534ZM236.804 162.829L238.448 161.901C239.545 161.269 239.545 160.594 238.406 159.961L231.659 156.081C230.52 155.407 229.381 155.407 228.285 156.039L226.64 156.967C225.544 157.6 225.586 158.232 226.724 158.907L233.472 162.787C234.611 163.462 235.707 163.462 236.804 162.829Z" fill="white"/>
<path d="M252.028 143.976L251.227 143.512C251.016 143.386 250.973 143.259 251.016 143.133L251.986 141.024C252.07 140.813 252.196 140.687 252.323 140.602L253.166 140.138C253.335 140.012 253.546 140.054 253.715 140.138L265.903 147.181C266.071 147.308 266.071 147.392 265.903 147.519L265.017 148.025C264.848 148.151 264.637 148.151 264.469 148.025L253.546 141.741L252.534 143.892C252.45 144.06 252.281 144.103 252.028 143.976Z" fill="white"/>
<path d="M291.248 89.7026L289.265 90.8413C288.38 91.3474 287.41 91.6004 286.355 91.6426C285.301 91.6426 284.331 91.3896 283.403 90.8413L276.529 86.8771C275.601 86.371 275.18 85.7806 275.18 85.1902C275.18 84.5998 275.644 84.0094 276.529 83.5033L278.511 82.3645C279.397 81.8585 280.367 81.6055 281.421 81.6055C282.476 81.6055 283.446 81.8585 284.331 82.4068L291.205 86.371C292.133 86.9193 292.597 87.4675 292.597 88.0579C292.597 88.6483 292.133 89.1965 291.248 89.7026ZM288.169 90.04L289.814 89.1122C290.91 88.4796 290.91 87.8049 289.771 87.1723L283.024 83.2924C281.885 82.6176 280.746 82.6175 279.65 83.2501L278.005 84.1779C276.909 84.8105 276.951 85.4432 278.09 86.118L284.837 89.9978C285.934 90.6304 287.072 90.6726 288.169 90.04Z" fill="white"/>
<path d="M177.466 214.492L176.665 214.028C176.454 213.902 176.412 213.775 176.454 213.649L177.424 211.54C177.508 211.329 177.635 211.203 177.762 211.118L178.605 210.654C178.774 210.528 178.985 210.528 179.153 210.654L191.341 217.697C191.51 217.824 191.51 217.908 191.341 218.035L190.455 218.541C190.287 218.667 190.076 218.625 189.907 218.541L178.984 212.257L177.972 214.408C177.846 214.576 177.677 214.619 177.466 214.492Z" fill="white"/>
<path d="M233.725 62.1188L232.924 61.6548C232.713 61.5283 232.671 61.4018 232.713 61.2753L233.683 59.1666C233.767 58.9557 233.894 58.8292 234.02 58.7449L234.864 58.281C235.032 58.1545 235.243 58.1967 235.412 58.281L247.6 65.3238C247.769 65.4503 247.769 65.5347 247.6 65.6613L246.714 66.1673C246.546 66.2938 246.335 66.2938 246.166 66.1673L235.243 59.8836L234.231 62.0343C234.147 62.203 233.978 62.2453 233.725 62.1188Z" fill="white"/>
<path d="M258.902 178.981L256.92 180.12C256.034 180.626 255.064 180.879 254.01 180.921C252.955 180.921 251.985 180.668 251.058 180.12L244.184 176.155C243.256 175.649 242.834 175.059 242.834 174.469C242.834 173.878 243.298 173.288 244.184 172.782L246.166 171.643C247.051 171.137 248.021 170.884 249.076 170.884C250.13 170.884 251.1 171.137 251.985 171.685L258.86 175.649C259.787 176.198 260.251 176.746 260.251 177.336C260.251 177.927 259.83 178.475 258.902 178.981ZM255.865 179.318L257.51 178.391C258.607 177.758 258.607 177.083 257.468 176.451L250.72 172.571C249.582 171.896 248.443 171.896 247.347 172.529L245.702 173.456C244.605 174.089 244.647 174.722 245.786 175.396L252.534 179.276C253.63 179.909 254.769 179.951 255.865 179.318Z" fill="white"/>
<path d="M282.224 165.53L280.242 166.668C279.356 167.174 278.386 167.427 277.332 167.47C276.278 167.47 275.308 167.217 274.38 166.668L267.506 162.704C266.578 162.198 266.156 161.608 266.156 161.017C266.156 160.427 266.62 159.836 267.506 159.33L269.488 158.192C270.373 157.686 271.343 157.433 272.398 157.433C273.452 157.433 274.422 157.686 275.308 158.234L282.182 162.198C283.11 162.746 283.573 163.295 283.573 163.885C283.573 164.475 283.11 165.024 282.224 165.53ZM279.145 165.867L280.79 164.939C281.887 164.307 281.887 163.632 280.748 162.999L274 159.12C272.862 158.445 271.723 158.445 270.627 159.077L268.982 160.005C267.885 160.638 267.928 161.27 269.066 161.945L275.814 165.825C276.952 166.458 278.049 166.5 279.145 165.867Z" fill="white"/>
<path d="M236.467 207.829L235.666 207.365C235.455 207.238 235.413 207.112 235.455 206.985L236.425 204.877C236.509 204.666 236.636 204.539 236.762 204.455L237.606 203.991C237.775 203.864 237.985 203.907 238.154 203.991L250.342 211.034C250.511 211.16 250.511 211.245 250.342 211.371L249.457 211.877C249.288 212.004 249.077 212.004 248.908 211.877L237.986 205.594L236.973 207.744C236.889 207.955 236.72 207.997 236.467 207.829Z" fill="white"/>
<path d="M282.899 192.602L280.917 193.741C280.031 194.247 279.061 194.5 278.007 194.542C276.952 194.542 275.982 194.289 275.055 193.741L268.18 189.776C267.253 189.27 266.831 188.68 266.831 188.09C266.831 187.499 267.295 186.909 268.18 186.403L270.163 185.264C271.048 184.758 272.018 184.505 273.073 184.505C274.127 184.505 275.097 184.758 275.982 185.306L282.857 189.27C283.784 189.819 284.248 190.367 284.248 190.957C284.248 191.506 283.785 192.096 282.899 192.602ZM279.82 192.897L281.465 191.969C282.561 191.337 282.561 190.662 281.423 190.03L274.675 186.15C273.536 185.475 272.398 185.475 271.301 186.107L269.657 187.035C268.56 187.668 268.602 188.3 269.741 188.975L276.489 192.855C277.627 193.53 278.724 193.53 279.82 192.897Z" fill="white"/>
<path d="M317.733 127.742L315.751 128.88C314.865 129.386 313.895 129.64 312.841 129.682C311.786 129.682 310.817 129.429 309.889 128.88L303.015 124.916C302.087 124.41 301.665 123.82 301.665 123.229C301.665 122.639 302.129 122.048 303.015 121.542L304.997 120.404C305.882 119.898 306.852 119.645 307.907 119.645C308.961 119.645 309.931 119.898 310.859 120.446L317.733 124.41C318.661 124.958 319.125 125.507 319.125 126.097C319.082 126.645 318.661 127.194 317.733 127.742ZM314.654 128.037L316.299 127.109C317.395 126.477 317.395 125.802 316.257 125.169L309.509 121.289C308.371 120.615 307.232 120.615 306.135 121.247L304.491 122.175C303.394 122.808 303.436 123.44 304.575 124.115L311.323 127.995C312.461 128.67 313.558 128.67 314.654 128.037Z" fill="white"/>
</svg>
