<svg width="26" height="26" viewBox="0 0 26 26" fill="none" xmlns="http://www.w3.org/2000/svg">
  <rect width="26" height="26" rx="13" fill="#F26524" />
  <g clip-path="url(#clip0_483_5234)">
    <path
      d="M4.5 8.75C4.5 8.18641 4.72388 7.64591 5.1224 7.2474C5.52091 6.84888 6.06141 6.625 6.625 6.625H19.375C19.9386 6.625 20.4791 6.84888 20.8776 7.2474C21.2761 7.64591 21.5 8.18641 21.5 8.75V17.25C21.5 17.8136 21.2761 18.3541 20.8776 18.7526C20.4791 19.1511 19.9386 19.375 19.375 19.375H6.625C6.06141 19.375 5.52091 19.1511 5.1224 18.7526C4.72388 18.3541 4.5 17.8136 4.5 17.25V8.75ZM6.625 7.6875C6.34321 7.6875 6.07296 7.79944 5.8737 7.9987C5.67444 8.19796 5.5625 8.46821 5.5625 8.75V8.98056L13 13.4431L20.4375 8.98056V8.75C20.4375 8.46821 20.3256 8.19796 20.1263 7.9987C19.927 7.79944 19.6568 7.6875 19.375 7.6875H6.625ZM20.4375 10.2194L15.4352 13.221L20.4375 16.2991V10.2194ZM20.4014 17.5252L14.4089 13.8373L13 14.6819L11.5911 13.8373L5.59863 17.5241C5.659 17.7502 5.79234 17.9501 5.97793 18.0926C6.16352 18.2352 6.39098 18.3125 6.625 18.3125H19.375C19.6089 18.3125 19.8362 18.2354 20.0218 18.093C20.2074 17.9507 20.3408 17.7511 20.4014 17.5252ZM5.5625 16.2991L10.5648 13.221L5.5625 10.2194V16.2991Z"
      fill="white" />
  </g>
  <defs>
    <clipPath id="clip0_483_5234">
      <rect width="17" height="17" fill="white" transform="translate(4.5 4.5)" />
    </clipPath>
  </defs>
</svg>
