<svg width="115" height="107" viewBox="0 0 115 107" fill="none" xmlns="http://www.w3.org/2000/svg">
  <path id="Vector"
    d="M61.7864 107C35.4622 107 14.0418 86.0763 14.0418 60.3625C14.0418 34.6487 35.4622 13.7249 61.7864 13.7249C76.749 13.7249 90.7253 20.542 99.7606 32.1127L106.209 29.2041C95.9175 15.1883 79.5964 6.93518 61.7957 6.93518C32.0658 6.93518 7.7981 30.2221 7.10953 59.09C7.09092 59.7898 6.514 60.3625 5.7975 60.3625H1.32174C0.58664 60.3625 -0.0181919 59.7717 0.000418301 59.0536C0.716912 26.3682 28.1577 0 61.7864 0C83.3836 0 103.045 10.7436 114.416 28.7497C114.732 29.2496 114.956 29.8222 114.993 30.413C115.086 31.9037 114.239 33.2216 112.937 33.8124L100.058 39.6115C98.4764 40.3204 96.5875 39.8114 95.6198 38.3844C88.0361 27.2863 75.3811 20.6601 61.7771 20.6601C39.3611 20.6601 21.1323 38.4753 21.1323 60.3625C21.1323 82.2497 39.3704 100.065 61.7771 100.065C73.9761 100.065 85.4121 94.7294 93.1167 85.6218L86.538 82.6587C79.5685 90.0483 69.6399 93.9386 59.1623 93.166C42.5248 91.9389 29.1533 78.6503 28.1484 62.3894C26.9666 43.3199 42.5062 27.4408 61.7771 27.4408C67.8998 27.4408 73.9016 29.0678 79.1311 32.1491C80.6106 33.0217 81.2527 34.7941 80.6385 36.3756L75.4928 49.5189C75.2509 50.146 74.8508 50.7277 74.2924 51.1186C72.906 52.1093 71.0915 51.9912 69.8632 50.9913C66.2808 48.0373 61.135 47.192 56.5569 49.2189C52.4068 51.055 49.5781 55.0634 49.271 59.5081C48.7778 66.6432 54.5749 72.6058 61.7771 72.6058C64.336 72.6058 66.8391 71.8423 68.9234 70.4244C69.4817 70.0517 70.2354 70.1517 70.6635 70.6516L73.548 73.9965C74.0412 74.5691 73.9389 75.4417 73.3154 75.878C69.9749 78.2503 65.9272 79.541 61.7678 79.541C50.9366 79.541 42.134 70.9334 42.134 60.3625C42.134 49.7915 50.9459 41.1839 61.7678 41.1839C64.7733 41.1839 67.723 41.8565 70.3843 43.129L72.8781 36.7665C69.4073 35.2031 65.6201 34.3851 61.7678 34.3851C46.6283 34.3851 34.4107 46.8011 35.211 61.7531C35.9182 74.9327 46.9633 85.6763 60.4651 86.3035C69.2212 86.7125 77.4469 82.9859 82.8066 76.2325C83.8023 74.9782 85.5796 74.6055 87.0498 75.269L99.9374 81.068C100.505 81.3225 101.026 81.6861 101.398 82.1769C102.329 83.404 102.329 85.0037 101.51 86.1944C92.6049 99.2286 77.7447 107 61.7678 107H61.7864Z"
    fill="white" fill-opacity="0.1" />
</svg>