<svg width="14" height="14" viewBox="0 0 14 14" fill="none" xmlns="http://www.w3.org/2000/svg">
  <g clip-path="url(#clip0_619_17068)">
    <path
      d="M5.55806 0.999409C5.63468 1.09251 5.68161 1.20645 5.69281 1.3265C5.704 1.44655 5.67894 1.5672 5.62085 1.67286C5.16707 2.50601 4.93008 3.43991 4.9317 4.38863C4.9317 7.54473 7.50462 10.1004 10.6756 10.1004C11.0893 10.1004 11.4919 10.0572 11.8789 9.97479C11.9975 9.9491 12.1211 9.95893 12.2341 10.003C12.3472 10.0471 12.4448 10.1236 12.5147 10.2228C12.5884 10.326 12.626 10.4507 12.6216 10.5774C12.6172 10.7042 12.5711 10.8259 12.4903 10.9237C11.8747 11.6799 11.0981 12.2892 10.2171 12.7072C9.33613 13.1251 8.37297 13.3412 7.39787 13.3397C3.77946 13.3397 0.848633 10.4245 0.848633 6.83282C0.848633 4.12961 2.50792 1.811 4.87048 0.8283C4.98817 0.778562 5.11882 0.768354 5.2428 0.799208C5.36679 0.830063 5.47741 0.900314 5.55806 0.999409Z"
      fill="#33475B" />
  </g>
  <defs>
    <clipPath id="clip0_619_17068">
      <rect width="12.5585" height="12.5585" fill="white" transform="translate(0.848633 0.78125)" />
    </clipPath>
  </defs>
</svg>
