<svg width="22" height="22" viewBox="0 0 22 22" fill="none" xmlns="http://www.w3.org/2000/svg">
  <path fill-rule="evenodd" clip-rule="evenodd"
    d="M13.0353 2.03437C13.6681 1.40163 14.5613 1.14551 15.584 1.14551H17.4173C18.44 1.14551 19.3332 1.40163 19.966 2.03437C20.5987 2.66711 20.8548 3.56037 20.8548 4.58301V6.41634C20.8548 7.43898 20.5987 8.33224 19.966 8.96498C19.3332 9.59772 18.44 9.85384 17.4173 9.85384H15.584C14.5613 9.85384 13.6681 9.59772 13.0353 8.96498C12.4026 8.33224 12.1465 7.43898 12.1465 6.41634V4.58301C12.1465 3.56037 12.4026 2.66711 13.0353 2.03437ZM14.0076 3.00664C13.7237 3.29057 13.5215 3.77232 13.5215 4.58301V6.41634C13.5215 7.22703 13.7237 7.70878 14.0076 7.9927C14.2915 8.27663 14.7733 8.47884 15.584 8.47884H17.4173C18.228 8.47884 18.7098 8.27663 18.9937 7.9927C19.2776 7.70878 19.4798 7.22703 19.4798 6.41634V4.58301C19.4798 3.77232 19.2776 3.29057 18.9937 3.00664C18.7098 2.72272 18.228 2.52051 17.4173 2.52051H15.584C14.7733 2.52051 14.2915 2.72272 14.0076 3.00664Z"
    fill="#F1F1F1" />
  <path fill-rule="evenodd" clip-rule="evenodd"
    d="M2.03535 13.0344C2.66809 12.4016 3.56134 12.1455 4.58398 12.1455H6.41732C7.43996 12.1455 8.33322 12.4016 8.96595 13.0344C9.59869 13.6671 9.85482 14.5604 9.85482 15.583V17.4163C9.85482 18.439 9.59869 19.3322 8.96595 19.965C8.33322 20.5977 7.43996 20.8538 6.41732 20.8538H4.58398C3.56134 20.8538 2.66809 20.5977 2.03535 19.965C1.40261 19.3322 1.14648 18.439 1.14648 17.4163V15.583C1.14648 14.5604 1.40261 13.6671 2.03535 13.0344ZM3.00762 14.0066C2.72369 14.2906 2.52148 14.7723 2.52148 15.583V17.4163C2.52148 18.227 2.72369 18.7088 3.00762 18.9927C3.29155 19.2766 3.77329 19.4788 4.58398 19.4788H6.41732C7.22801 19.4788 7.70975 19.2766 7.99368 18.9927C8.27761 18.7088 8.47982 18.227 8.47982 17.4163V15.583C8.47982 14.7723 8.27761 14.2906 7.99368 14.0066C7.70975 13.7227 7.22801 13.5205 6.41732 13.5205H4.58398C3.77329 13.5205 3.29155 13.7227 3.00762 14.0066Z"
    fill="#F1F1F1" />
  <path fill-rule="evenodd" clip-rule="evenodd"
    d="M5.50065 2.52051C3.8553 2.52051 2.52148 3.85433 2.52148 5.49967C2.52148 7.14502 3.8553 8.47884 5.50065 8.47884C7.146 8.47884 8.47982 7.14502 8.47982 5.49967C8.47982 3.85433 7.146 2.52051 5.50065 2.52051ZM1.14648 5.49967C1.14648 3.09493 3.09591 1.14551 5.50065 1.14551C7.90539 1.14551 9.85482 3.09493 9.85482 5.49967C9.85482 7.90441 7.90539 9.85384 5.50065 9.85384C3.09591 9.85384 1.14648 7.90441 1.14648 5.49967Z"
    fill="#F1F1F1" />
  <path fill-rule="evenodd" clip-rule="evenodd"
    d="M16.5007 13.5205C14.8553 13.5205 13.5215 14.8543 13.5215 16.4997C13.5215 18.145 14.8553 19.4788 16.5007 19.4788C18.146 19.4788 19.4798 18.145 19.4798 16.4997C19.4798 14.8543 18.146 13.5205 16.5007 13.5205ZM12.1465 16.4997C12.1465 14.0949 14.0959 12.1455 16.5007 12.1455C18.9054 12.1455 20.8548 14.0949 20.8548 16.4997C20.8548 18.9044 18.9054 20.8538 16.5007 20.8538C14.0959 20.8538 12.1465 18.9044 12.1465 16.4997Z"
    fill="#F1F1F1" />
</svg>
