<svg width="12" height="13" viewBox="0 0 12 13" fill="none" xmlns="http://www.w3.org/2000/svg">
  <g clip-path="url(#clip0_564_1005)">
    <path
      d="M9.41775 5.15506L5.3988 9.17401C5.27961 9.0849 5.13955 9.02761 4.99198 9.00768C4.96648 8.81886 4.87981 8.64233 4.74357 8.50609C4.60734 8.36985 4.4308 8.28318 4.24198 8.25768C4.21648 8.06886 4.12981 7.89232 3.99357 7.75609C3.85734 7.61985 3.6808 7.53318 3.49198 7.50768C3.47205 7.36012 3.41476 7.22005 3.32565 7.10087L7.3446 3.08191L9.41775 5.15506ZM9.37523 1.05129L11.4487 3.12478L10.6552 3.91781L8.58196 1.84456L9.37523 1.05129ZM11.5373 3.21331C11.5371 3.21316 11.537 3.21301 11.5368 3.21286L11.5373 3.21331ZM3.50614 10.4935C3.57007 10.5575 3.64287 10.6105 3.72165 10.6514L0.599382 11.9003L1.84829 8.77801C1.88919 8.85679 1.94221 8.9296 2.00614 8.99353C2.14237 9.12976 2.31891 9.21643 2.50773 9.24193C2.53323 9.43075 2.6199 9.60729 2.75614 9.74353C2.89237 9.87976 3.06891 9.96643 3.25773 9.99193C3.28323 10.1807 3.3699 10.3573 3.50614 10.4935Z"
      fill="#1F2937" stroke="#1F2937" />
  </g>
  <defs>
    <clipPath id="clip0_564_1005">
      <rect width="12" height="12" fill="white" transform="translate(0 0.5)" />
    </clipPath>
  </defs>
</svg>
