<svg width="12" height="12" viewBox="0 0 12 12" fill="none" xmlns="http://www.w3.org/2000/svg">
  <g clip-path="url(#clip0_545_5133)">
    <path
      d="M9.41775 4.65554L5.3988 8.6745C5.27961 8.58538 5.13955 8.5281 4.99198 8.50817C4.96648 8.31935 4.87981 8.14281 4.74357 8.00658C4.60734 7.87034 4.4308 7.78367 4.24198 7.75817C4.21648 7.56935 4.12981 7.39281 3.99357 7.25658C3.85734 7.12034 3.6808 7.03367 3.49198 7.00817C3.47205 6.8606 3.41476 6.72054 3.32565 6.60135L7.3446 2.5824L9.41775 4.65554ZM8.58196 1.34504L9.37523 0.551777L11.4487 2.62527L10.6552 3.4183L8.58196 1.34504ZM3.50614 9.99401C3.57007 10.0579 3.64287 10.111 3.72165 10.1519L0.599382 11.4008L1.84829 8.2785C1.88919 8.35728 1.94221 8.43008 2.00614 8.49401C2.14237 8.63025 2.31891 8.71692 2.50773 8.74242C2.53323 8.93124 2.6199 9.10778 2.75614 9.24401C2.89237 9.38025 3.06891 9.46692 3.25773 9.49242C3.28323 9.68124 3.3699 9.85778 3.50614 9.99401ZM0.328549 11.5091C0.328646 11.5091 0.328744 11.509 0.328842 11.509L0.328659 11.5091L0.328549 11.5091Z"
      fill="#1F2937" stroke="#1F2937" />
  </g>
  <defs>
    <clipPath id="clip0_545_5133">
      <rect width="12" height="12" fill="white" />
    </clipPath>
  </defs>
</svg>