<svg width="12" height="12" viewBox="0 0 12 12" fill="none" xmlns="http://www.w3.org/2000/svg">
  <path
    d="M2.25639 10C2.25562 9.99996 2.25461 9.99989 2.2534 9.99981C2.24618 9.99929 2.23261 9.99802 2.21501 9.99508C2.17745 9.98882 2.135 9.97723 2.09861 9.95904C2.06417 9.94182 2.04495 9.92384 2.03321 9.90624C2.02357 9.89177 2 9.85001 2 9.75C2 9.50338 2.13777 8.88183 2.6973 8.3223C3.24218 7.77742 4.23045 7.25 6 7.25C7.76955 7.25 8.75782 7.77742 9.3027 8.3223C9.86223 8.88183 10 9.50338 10 9.75C10 9.85001 9.97643 9.89177 9.96679 9.90624C9.95505 9.92384 9.93583 9.94182 9.90139 9.95904C9.865 9.97723 9.82255 9.98882 9.78499 9.99508C9.76739 9.99802 9.75382 9.99929 9.7466 9.99981C9.74539 9.99989 9.74439 9.99996 9.74361 10H2.25639ZM7.23744 4.98744C6.90925 5.31563 6.46413 5.5 6 5.5C5.53587 5.5 5.09075 5.31563 4.76256 4.98744C4.43437 4.65925 4.25 4.21413 4.25 3.75C4.25 3.28587 4.43437 2.84075 4.76256 2.51256C5.09075 2.18437 5.53587 2 6 2C6.46413 2 6.90925 2.18437 7.23744 2.51256C7.56563 2.84075 7.75 3.28587 7.75 3.75C7.75 4.21413 7.56563 4.65925 7.23744 4.98744Z"
    fill="#33475B" stroke="#33475B" />
</svg>
