<svg width="33" height="34" viewBox="0 0 33 34" fill="none" xmlns="http://www.w3.org/2000/svg">
  <rect y="0.673828" width="32.6522" height="32.6522" rx="16.3261" fill="#F26524" />
  <g clip-path="url(#clip0_483_5924)">
    <path
      d="M13.6478 16.4467C13.6537 16.4408 13.6616 16.4375 13.6699 16.4375H18.9824C18.9907 16.4375 18.9987 16.4408 19.0045 16.4467C19.0104 16.4525 19.0137 16.4605 19.0137 16.4688C19.0137 16.477 19.0104 16.485 19.0045 16.4908C18.9987 16.4967 18.9907 16.5 18.9824 16.5H13.6699C13.6616 16.5 13.6537 16.4967 13.6478 16.4908C13.642 16.485 13.6387 16.477 13.6387 16.4688C13.6387 16.4605 13.642 16.4525 13.6478 16.4467ZM13.6387 18.5938C13.6387 18.5855 13.642 18.5775 13.6478 18.5717C13.6537 18.5658 13.6616 18.5625 13.6699 18.5625H18.9824C18.9907 18.5625 18.9987 18.5658 19.0045 18.5717C19.0104 18.5775 19.0137 18.5855 19.0137 18.5938C19.0137 18.602 19.0104 18.61 19.0045 18.6158C18.9987 18.6217 18.9907 18.625 18.9824 18.625H13.6699C13.6616 18.625 13.6537 18.6217 13.6478 18.6158C13.642 18.61 13.6387 18.602 13.6387 18.5938ZM13.6387 20.7188C13.6387 20.7105 13.642 20.7025 13.6478 20.6967C13.6537 20.6908 13.6616 20.6875 13.6699 20.6875H15.7949C15.8032 20.6875 15.8112 20.6908 15.817 20.6967C15.8229 20.7025 15.8262 20.7105 15.8262 20.7188C15.8262 20.727 15.8229 20.735 15.817 20.7408C15.8112 20.7467 15.8032 20.75 15.7949 20.75H13.6699C13.6616 20.75 13.6537 20.7467 13.6478 20.7408C13.642 20.735 13.6387 20.727 13.6387 20.7188Z"
      fill="white" stroke="white" />
    <path
      d="M17.9199 8.5H12.0762C11.5126 8.5 10.9721 8.72388 10.5736 9.1224C10.1751 9.52091 9.95117 10.0614 9.95117 10.625V23.375C9.95117 23.9386 10.1751 24.4791 10.5736 24.8776C10.9721 25.2761 11.5126 25.5 12.0762 25.5H20.5762C21.1398 25.5 21.6803 25.2761 22.0788 24.8776C22.4773 24.4791 22.7012 23.9386 22.7012 23.375V13.2812L17.9199 8.5ZM17.9199 9.5625V11.6875C17.9199 12.1102 18.0878 12.5156 18.3867 12.8145C18.6856 13.1133 19.091 13.2812 19.5137 13.2812H21.6387V23.375C21.6387 23.6568 21.5267 23.927 21.3275 24.1263C21.1282 24.3256 20.858 24.4375 20.5762 24.4375H12.0762C11.7944 24.4375 11.5241 24.3256 11.3249 24.1263C11.1256 23.927 11.0137 23.6568 11.0137 23.375V10.625C11.0137 10.3432 11.1256 10.073 11.3249 9.8737C11.5241 9.67444 11.7944 9.5625 12.0762 9.5625H17.9199Z"
      fill="white" />
  </g>
  <defs>
    <clipPath id="clip0_483_5924">
      <rect width="17" height="17" fill="white" transform="translate(7.82617 8.5)" />
    </clipPath>
  </defs>
</svg>
