<svg width="26" height="26" viewBox="0 0 26 26" fill="none" xmlns="http://www.w3.org/2000/svg">
  <rect width="26" height="26" rx="13" fill="#F26524" />
  <path
    d="M11.2267 15.9782V15.812C11.231 15.0407 11.3034 14.427 11.4441 13.9711C11.589 13.5151 11.7935 13.1486 12.0577 12.8716C12.3219 12.5904 12.6436 12.3326 13.0229 12.0982C13.2828 11.9363 13.5151 11.7594 13.7196 11.5676C13.9284 11.3716 14.0925 11.1543 14.2118 10.9157C14.3311 10.6728 14.3908 10.4022 14.3908 10.1039C14.3908 9.76722 14.312 9.47532 14.1543 9.22816C13.9966 8.981 13.7836 8.78924 13.5151 8.65288C13.2509 8.51651 12.9547 8.44833 12.6266 8.44833C12.324 8.44833 12.0364 8.51438 11.7637 8.64648C11.4952 8.77432 11.2715 8.97035 11.0925 9.23455C10.9178 9.4945 10.8198 9.82475 10.7985 10.2253H8.5229C8.54421 9.41566 8.74023 8.7381 9.11097 8.19265C9.48597 7.64719 9.98029 7.2381 10.5939 6.96538C11.2118 6.69265 11.8936 6.55629 12.6394 6.55629C13.4533 6.55629 14.1692 6.69904 14.7871 6.98455C15.4093 7.27006 15.8929 7.67702 16.2381 8.20543C16.5875 8.72958 16.7623 9.35174 16.7623 10.0719C16.7623 10.5577 16.6834 10.9924 16.5257 11.3759C16.3723 11.7594 16.1529 12.1003 15.8674 12.3986C15.5819 12.6969 15.2431 12.9632 14.851 13.1976C14.5059 13.4107 14.2225 13.6323 14.0009 13.8624C13.7836 14.0925 13.6216 14.3631 13.5151 14.6742C13.4128 14.981 13.3596 15.3603 13.3553 15.812V15.9782H11.2267ZM12.339 19.9668C11.9554 19.9668 11.6252 19.8304 11.3482 19.5577C11.0712 19.285 10.9327 18.9526 10.9327 18.5605C10.9327 18.177 11.0712 17.8489 11.3482 17.5762C11.6252 17.3034 11.9554 17.1671 12.339 17.1671C12.7182 17.1671 13.0463 17.3034 13.3233 17.5762C13.6046 17.8489 13.7452 18.177 13.7452 18.5605C13.7452 18.8205 13.6792 19.057 13.5471 19.2701C13.4192 19.4831 13.2488 19.6536 13.0357 19.7814C12.8269 19.905 12.5946 19.9668 12.339 19.9668Z"
    fill="white" />
</svg>
