<svg width="20" height="20" viewBox="0 0 20 20" fill="none" xmlns="http://www.w3.org/2000/svg">
  <path fill-rule="evenodd" clip-rule="evenodd"
    d="M9.54134 1.52051C5.11156 1.52051 1.52051 5.11156 1.52051 9.54134C1.52051 13.9711 5.11156 17.5622 9.54134 17.5622C13.9711 17.5622 17.5622 13.9711 17.5622 9.54134C17.5622 5.11156 13.9711 1.52051 9.54134 1.52051ZM0.145508 9.54134C0.145508 4.35217 4.35217 0.145508 9.54134 0.145508C14.7305 0.145508 18.9372 4.35217 18.9372 9.54134C18.9372 14.7305 14.7305 18.9372 9.54134 18.9372C4.35217 18.9372 0.145508 14.7305 0.145508 9.54134Z"
    fill="#9CA3AF" />
  <path fill-rule="evenodd" clip-rule="evenodd"
    d="M16.8469 16.8469C17.1154 16.5784 17.5507 16.5784 17.8191 16.8469L19.6525 18.6802C19.921 18.9487 19.921 19.384 19.6525 19.6525C19.384 19.921 18.9487 19.921 18.6802 19.6525L16.8469 17.8191C16.5784 17.5507 16.5784 17.1154 16.8469 16.8469Z"
    fill="#9CA3AF" />
</svg>
