<svg width="32" height="32" viewBox="0 0 32 32" fill="none" xmlns="http://www.w3.org/2000/svg">
<circle cx="16" cy="16" r="12" fill="#F26524"/>
<g clip-path="url(#clip0_165_6908)">
<path d="M18.5714 11.2857C18.5713 10.7829 18.748 10.2961 19.0706 9.91051C19.3932 9.52488 19.8412 9.26496 20.336 9.17622C20.8309 9.08749 21.3412 9.17558 21.7777 9.42511C22.2142 9.67463 22.5491 10.0697 22.7237 10.5412C22.8983 11.0126 22.9016 11.5305 22.733 12.0041C22.5643 12.4778 22.2345 12.8771 21.8013 13.1321C21.368 13.3872 20.8588 13.4817 20.3629 13.3993C19.8669 13.3168 19.4157 13.0626 19.0882 12.6811L13.3299 15.3554C13.4623 15.7749 13.4623 16.225 13.3299 16.6446L19.0882 19.3188C19.4344 18.9163 19.9177 18.6565 20.4444 18.59C20.9711 18.5234 21.5038 18.6548 21.9392 18.9586C22.3747 19.2624 22.6818 19.717 22.8011 20.2344C22.9204 20.7517 22.8434 21.295 22.585 21.7588C22.3266 22.2226 21.9053 22.574 21.4026 22.7448C20.8999 22.9157 20.3517 22.8938 19.8642 22.6835C19.3767 22.4732 18.9846 22.0894 18.764 21.6065C18.5433 21.1235 18.5098 20.5759 18.6699 20.0697L12.9117 17.3954C12.6266 17.7276 12.2466 17.9646 11.8229 18.0743C11.3992 18.1841 10.9519 18.1615 10.5414 18.0095C10.1309 17.8576 9.77681 17.5835 9.52673 17.2242C9.27664 16.865 9.14258 16.4377 9.14258 16C9.14258 15.5623 9.27664 15.135 9.52673 14.7757C9.77681 14.4165 10.1309 14.1424 10.5414 13.9904C10.9519 13.8385 11.3992 13.8158 11.8229 13.9256C12.2466 14.0354 12.6266 14.2724 12.9117 14.6046L18.6699 11.9303C18.6044 11.7217 18.5712 11.5043 18.5714 11.2857Z" fill="white"/>
</g>
<defs>
<clipPath id="clip0_165_6908">
<rect width="13.7143" height="13.7143" fill="white" transform="translate(9.14282 9.14258)"/>
</clipPath>
</defs>
</svg>
