<svg width="16" height="16" viewBox="0 0 16 16" fill="none" xmlns="http://www.w3.org/2000/svg">
<g id="share-fill" clip-path="url(#clip0_165_6732)">
<path id="Vector" d="M11 2.49983C10.9999 1.91326 11.2061 1.34534 11.5825 0.895437C11.9588 0.445532 12.4814 0.142289 13.0588 0.0387629C13.6361 -0.0647635 14.2315 0.0380191 14.7408 0.329128C15.25 0.620237 15.6406 1.08113 15.8444 1.63118C16.0481 2.18123 16.0519 2.78541 15.8552 3.338C15.6585 3.89059 15.2737 4.35641 14.7682 4.65397C14.2627 4.95152 13.6687 5.06186 13.0901 4.96568C12.5115 4.86949 11.9851 4.57291 11.603 4.12783L4.88502 7.24783C5.03946 7.73727 5.03946 8.26239 4.88502 8.75183L11.603 11.8718C12.0069 11.4022 12.5707 11.0991 13.1852 11.0215C13.7997 10.9438 14.4212 11.0971 14.9292 11.4515C15.4372 11.806 15.7955 12.3364 15.9347 12.9399C16.0739 13.5435 15.9841 14.1773 15.6826 14.7184C15.3812 15.2595 14.8896 15.6695 14.3031 15.8688C13.7166 16.0681 13.077 16.0426 12.5083 15.7972C11.9396 15.5519 11.4822 15.1041 11.2247 14.5407C10.9673 13.9773 10.9282 13.3384 11.115 12.7478L4.39702 9.62783C4.06446 10.0154 3.62117 10.2918 3.1268 10.4199C2.63243 10.548 2.11069 10.5216 1.63176 10.3443C1.15283 10.167 0.739697 9.84726 0.447928 9.42811C0.15616 9.00897 -0.000244141 8.51052 -0.000244141 7.99983C-0.000244141 7.48913 0.15616 6.99068 0.447928 6.57154C0.739697 6.15239 1.15283 5.83266 1.63176 5.65535C2.11069 5.47803 2.63243 5.45165 3.1268 5.57974C3.62117 5.70783 4.06446 5.98426 4.39702 6.37183L11.115 3.25183C11.0386 3.00849 10.9998 2.75489 11 2.49983Z" fill="#333333"/>
</g>
<defs>
<clipPath id="clip0_165_6732">
<rect width="16" height="16" fill="white"/>
</clipPath>
</defs>
</svg>
