<svg width="14" height="13" viewBox="0 0 14 13" fill="none" xmlns="http://www.w3.org/2000/svg">
  <g clip-path="url(#clip0_619_17059)">
    <path
      d="M7.12787 9.50186C7.96055 9.50186 8.75912 9.17108 9.34791 8.58229C9.9367 7.99349 10.2675 7.19492 10.2675 6.36224C10.2675 5.52956 9.9367 4.73099 9.34791 4.1422C8.75912 3.5534 7.96055 3.22262 7.12787 3.22262C6.29519 3.22262 5.49661 3.5534 4.90782 4.1422C4.31903 4.73099 3.98825 5.52956 3.98825 6.36224C3.98825 7.19492 4.31903 7.99349 4.90782 8.58229C5.49661 9.17108 6.29519 9.50186 7.12787 9.50186ZM7.12787 0.0830078C7.23195 0.0830078 7.33177 0.124355 7.40537 0.197954C7.47897 0.271553 7.52032 0.371375 7.52032 0.47546V2.04527C7.52032 2.14935 7.47897 2.24917 7.40537 2.32277C7.33177 2.39637 7.23195 2.43772 7.12787 2.43772C7.02378 2.43772 6.92396 2.39637 6.85036 2.32277C6.77676 2.24917 6.73541 2.14935 6.73541 2.04527V0.47546C6.73541 0.371375 6.77676 0.271553 6.85036 0.197954C6.92396 0.124355 7.02378 0.0830078 7.12787 0.0830078V0.0830078ZM7.12787 10.2868C7.23195 10.2868 7.33177 10.3281 7.40537 10.4017C7.47897 10.4753 7.52032 10.5751 7.52032 10.6792V12.249C7.52032 12.3531 7.47897 12.4529 7.40537 12.5265C7.33177 12.6001 7.23195 12.6415 7.12787 12.6415C7.02378 12.6415 6.92396 12.6001 6.85036 12.5265C6.77676 12.4529 6.73541 12.3531 6.73541 12.249V10.6792C6.73541 10.5751 6.77676 10.4753 6.85036 10.4017C6.92396 10.3281 7.02378 10.2868 7.12787 10.2868ZM13.4071 6.36224C13.4071 6.46633 13.3658 6.56615 13.2922 6.63975C13.2186 6.71335 13.1187 6.75469 13.0146 6.75469H11.4448C11.3408 6.75469 11.2409 6.71335 11.1673 6.63975C11.0937 6.56615 11.0524 6.46633 11.0524 6.36224C11.0524 6.25816 11.0937 6.15834 11.1673 6.08474C11.2409 6.01114 11.3408 5.96979 11.4448 5.96979H13.0146C13.1187 5.96979 13.2186 6.01114 13.2922 6.08474C13.3658 6.15834 13.4071 6.25816 13.4071 6.36224ZM3.20335 6.36224C3.20335 6.46633 3.162 6.56615 3.0884 6.63975C3.0148 6.71335 2.91498 6.75469 2.81089 6.75469H1.24108C1.137 6.75469 1.03718 6.71335 0.963579 6.63975C0.88998 6.56615 0.848633 6.46633 0.848633 6.36224C0.848633 6.25816 0.88998 6.15834 0.963579 6.08474C1.03718 6.01114 1.137 5.96979 1.24108 5.96979H2.81089C2.91498 5.96979 3.0148 6.01114 3.0884 6.08474C3.162 6.15834 3.20335 6.25816 3.20335 6.36224ZM11.5681 1.92204C11.6416 1.99563 11.683 2.09544 11.683 2.1995C11.683 2.30357 11.6416 2.40337 11.5681 2.47697L10.4582 3.58761C10.4217 3.62404 10.3784 3.65294 10.3308 3.67264C10.2831 3.69234 10.232 3.70246 10.1805 3.70242C10.0763 3.70235 9.97648 3.6609 9.90289 3.58721C9.86646 3.55072 9.83757 3.50742 9.81787 3.45976C9.79817 3.41211 9.78804 3.36104 9.78808 3.30947C9.78816 3.20533 9.8296 3.10548 9.90329 3.03189L11.0131 1.92204C11.0867 1.84846 11.1865 1.80713 11.2906 1.80713C11.3947 1.80713 11.4945 1.84846 11.5681 1.92204ZM4.35245 9.13766C4.42602 9.21126 4.46735 9.31106 4.46735 9.41513C4.46735 9.51919 4.42602 9.61899 4.35245 9.69259L3.24259 10.8024C3.16857 10.8739 3.06944 10.9135 2.96654 10.9126C2.86364 10.9117 2.76521 10.8704 2.69244 10.7977C2.61968 10.7249 2.57841 10.6265 2.57751 10.5236C2.57662 10.4207 2.61618 10.3215 2.68766 10.2475L3.79752 9.13766C3.87111 9.06409 3.97092 9.02276 4.07498 9.02276C4.17905 9.02276 4.27885 9.06409 4.35245 9.13766ZM11.5681 10.8024C11.4945 10.876 11.3947 10.9173 11.2906 10.9173C11.1865 10.9173 11.0867 10.876 11.0131 10.8024L9.90329 9.69259C9.8318 9.61857 9.79224 9.51944 9.79314 9.41654C9.79403 9.31364 9.8353 9.21521 9.90807 9.14244C9.98083 9.06968 10.0793 9.02841 10.1822 9.02751C10.2851 9.02662 10.3842 9.06618 10.4582 9.13766L11.5681 10.2475C11.6416 10.3211 11.683 10.4209 11.683 10.525C11.683 10.629 11.6416 10.7288 11.5681 10.8024ZM4.35245 3.58761C4.27885 3.66118 4.17905 3.70251 4.07498 3.70251C3.97092 3.70251 3.87111 3.66118 3.79752 3.58761L2.68766 2.47697C2.65018 2.44076 2.62028 2.39746 2.59971 2.34958C2.57915 2.3017 2.56832 2.2502 2.56787 2.19809C2.56741 2.14598 2.57734 2.0943 2.59708 2.04607C2.61681 1.99784 2.64595 1.95402 2.6828 1.91717C2.71965 1.88033 2.76347 1.85118 2.8117 1.83145C2.85993 1.81172 2.91161 1.80179 2.96371 1.80224C3.01582 1.8027 3.06732 1.81352 3.1152 1.83409C3.16308 1.85466 3.20639 1.88456 3.24259 1.92204L4.35245 3.03189C4.38899 3.06835 4.41799 3.11166 4.43777 3.15934C4.45756 3.20701 4.46774 3.25813 4.46774 3.30975C4.46774 3.36137 4.45756 3.41248 4.43777 3.46016C4.41799 3.50784 4.38899 3.55115 4.35245 3.58761Z"
      fill="#33475B" />
  </g>
  <defs>
    <clipPath id="clip0_619_17059">
      <rect width="12.5585" height="12.5585" fill="white" transform="translate(0.848633 0.0830078)" />
    </clipPath>
  </defs>
</svg>
