<svg width="25" height="25" viewBox="0 0 25 25" fill="none" xmlns="http://www.w3.org/2000/svg">
<g id="three-dots-vertical">
<path id="Vector" d="M14.668 19.6924C14.668 20.2891 14.4309 20.8614 14.009 21.2834C13.587 21.7053 13.0147 21.9424 12.418 21.9424C11.8212 21.9424 11.2489 21.7053 10.827 21.2834C10.405 20.8614 10.168 20.2891 10.168 19.6924C10.168 19.0956 10.405 18.5233 10.827 18.1014C11.2489 17.6794 11.8212 17.4424 12.418 17.4424C13.0147 17.4424 13.587 17.6794 14.009 18.1014C14.4309 18.5233 14.668 19.0956 14.668 19.6924ZM14.668 12.1924C14.668 12.7891 14.4309 13.3614 14.009 13.7834C13.587 14.2053 13.0147 14.4424 12.418 14.4424C11.8212 14.4424 11.2489 14.2053 10.827 13.7834C10.405 13.3614 10.168 12.7891 10.168 12.1924C10.168 11.5956 10.405 11.0233 10.827 10.6014C11.2489 10.1794 11.8212 9.94238 12.418 9.94238C13.0147 9.94238 13.587 10.1794 14.009 10.6014C14.4309 11.0233 14.668 11.5956 14.668 12.1924ZM14.668 4.69238C14.668 5.28912 14.4309 5.86142 14.009 6.28337C13.587 6.70533 13.0147 6.94238 12.418 6.94238C11.8212 6.94238 11.2489 6.70533 10.827 6.28337C10.405 5.86142 10.168 5.28912 10.168 4.69238C10.168 4.09565 10.405 3.52335 10.827 3.10139C11.2489 2.67944 11.8212 2.44238 12.418 2.44238C13.0147 2.44238 13.587 2.67944 14.009 3.10139C14.4309 3.52335 14.668 4.09565 14.668 4.69238Z" fill="#1F2937"/>
</g>
</svg>
