<svg width="16" height="17" viewBox="0 0 16 17" fill="none" xmlns="http://www.w3.org/2000/svg">
<g id="trash3-fill" clip-path="url(#clip0_165_6735)">
<path id="Vector" d="M11 2V3H14.5C14.6326 3 14.7598 3.05268 14.8536 3.14645C14.9473 3.24021 15 3.36739 15 3.5C15 3.63261 14.9473 3.75979 14.8536 3.85355C14.7598 3.94732 14.6326 4 14.5 4H13.962L13.109 14.66C13.0688 15.1612 12.8412 15.6289 12.4717 15.9698C12.1022 16.3108 11.6178 16.5001 11.115 16.5H4.885C4.38219 16.5001 3.8978 16.3108 3.52827 15.9698C3.15875 15.6289 2.93122 15.1612 2.891 14.66L2.038 4H1.5C1.36739 4 1.24021 3.94732 1.14645 3.85355C1.05268 3.75979 1 3.63261 1 3.5C1 3.36739 1.05268 3.24021 1.14645 3.14645C1.24021 3.05268 1.36739 3 1.5 3H5V2C5 1.60218 5.15804 1.22064 5.43934 0.93934C5.72064 0.658035 6.10218 0.5 6.5 0.5L9.5 0.5C9.89782 0.5 10.2794 0.658035 10.5607 0.93934C10.842 1.22064 11 1.60218 11 2ZM6 2V3H10V2C10 1.86739 9.94732 1.74021 9.85355 1.64645C9.75979 1.55268 9.63261 1.5 9.5 1.5H6.5C6.36739 1.5 6.24021 1.55268 6.14645 1.64645C6.05268 1.74021 6 1.86739 6 2ZM4.5 5.529L5 14.029C5.00267 14.0954 5.01857 14.1607 5.04676 14.2209C5.07495 14.2811 5.11488 14.3351 5.16419 14.3797C5.21351 14.4244 5.27123 14.4587 5.33397 14.4807C5.39672 14.5027 5.46322 14.512 5.5296 14.508C5.59598 14.504 5.6609 14.4868 5.72055 14.4575C5.7802 14.4281 5.8334 14.3871 5.87701 14.3369C5.92063 14.2867 5.9538 14.2283 5.97457 14.1651C5.99535 14.102 6.00331 14.0353 5.998 13.969L5.498 5.469C5.49533 5.40255 5.47943 5.33731 5.45124 5.27708C5.42305 5.21686 5.38312 5.16286 5.33381 5.11825C5.28449 5.07365 5.22677 5.03932 5.16403 5.0173C5.10128 4.99527 5.03478 4.98598 4.9684 4.98997C4.90202 4.99396 4.8371 5.01115 4.77745 5.04054C4.7178 5.06992 4.6646 5.11091 4.62099 5.16111C4.57737 5.2113 4.5442 5.26969 4.52343 5.33286C4.50265 5.39603 4.49469 5.46271 4.5 5.529ZM11.03 5.001C10.8977 4.99335 10.7677 5.03856 10.6687 5.1267C10.5697 5.21483 10.5097 5.33867 10.502 5.471L10.002 13.971C9.99771 14.1014 10.0445 14.2282 10.1325 14.3246C10.2204 14.4209 10.3425 14.479 10.4727 14.4866C10.6029 14.4942 10.7309 14.4506 10.8295 14.3651C10.928 14.2796 10.9892 14.159 11 14.029L11.5 5.529C11.5076 5.39667 11.4624 5.26671 11.3743 5.1677C11.2862 5.06869 11.1623 5.00873 11.03 5.001ZM8 5C7.86739 5 7.74021 5.05268 7.64645 5.14645C7.55268 5.24021 7.5 5.36739 7.5 5.5V14C7.5 14.1326 7.55268 14.2598 7.64645 14.3536C7.74021 14.4473 7.86739 14.5 8 14.5C8.13261 14.5 8.25979 14.4473 8.35355 14.3536C8.44732 14.2598 8.5 14.1326 8.5 14V5.5C8.5 5.36739 8.44732 5.24021 8.35355 5.14645C8.25979 5.05268 8.13261 5 8 5Z" fill="#F26524"/>
</g>
<defs>
<clipPath id="clip0_165_6735">
<rect width="16" height="16" fill="white" transform="translate(0 0.5)"/>
</clipPath>
</defs>
</svg>
