<svg width="25" height="25" viewBox="0 0 25 25" fill="none" xmlns="http://www.w3.org/2000/svg">
  <path
    d="M17.1875 2.34375V3.90625H22.6562C22.8635 3.90625 23.0622 3.98856 23.2087 4.13507C23.3552 4.28159 23.4375 4.4803 23.4375 4.6875C23.4375 4.8947 23.3552 5.09341 23.2087 5.23993C23.0622 5.38644 22.8635 5.46875 22.6562 5.46875H21.8156L20.4828 22.125C20.42 22.9081 20.0644 23.6388 19.4871 24.1716C18.9097 24.7044 18.1528 25.0002 17.3672 25H7.63281C6.84718 25.0002 6.09031 24.7044 5.51293 24.1716C4.93555 23.6388 4.58004 22.9081 4.51719 22.125L3.18438 5.46875H2.34375C2.13655 5.46875 1.93784 5.38644 1.79132 5.23993C1.64481 5.09341 1.5625 4.8947 1.5625 4.6875C1.5625 4.4803 1.64481 4.28159 1.79132 4.13507C1.93784 3.98856 2.13655 3.90625 2.34375 3.90625H7.8125V2.34375C7.8125 1.72215 8.05943 1.12601 8.49897 0.686468C8.93851 0.24693 9.53465 0 10.1562 0L14.8438 0C15.4654 0 16.0615 0.24693 16.501 0.686468C16.9406 1.12601 17.1875 1.72215 17.1875 2.34375ZM9.375 2.34375V3.90625H15.625V2.34375C15.625 2.13655 15.5427 1.93784 15.3962 1.79132C15.2497 1.64481 15.051 1.5625 14.8438 1.5625H10.1562C9.94905 1.5625 9.75034 1.64481 9.60382 1.79132C9.45731 1.93784 9.375 2.13655 9.375 2.34375ZM7.03125 7.85781L7.8125 21.1391C7.81667 21.2429 7.84151 21.3448 7.88556 21.4389C7.92961 21.533 7.99199 21.6174 8.06905 21.6871C8.14611 21.7568 8.2363 21.8104 8.33433 21.8448C8.43237 21.8793 8.53629 21.8938 8.64 21.8875C8.74372 21.8813 8.84515 21.8545 8.93836 21.8085C9.03157 21.7626 9.11468 21.6986 9.18283 21.6201C9.25098 21.5417 9.30281 21.4505 9.33527 21.3518C9.36773 21.2531 9.38017 21.1489 9.37188 21.0453L8.59063 7.76406C8.58645 7.66024 8.56162 7.5583 8.51756 7.46419C8.47351 7.37009 8.41113 7.28572 8.33407 7.21602C8.25702 7.14632 8.16683 7.09269 8.06879 7.05828C7.97076 7.02386 7.86684 7.00934 7.76312 7.01558C7.6594 7.02181 7.55797 7.04867 7.46477 7.09459C7.37156 7.14051 7.28844 7.20455 7.22029 7.28298C7.15214 7.36141 7.10032 7.45265 7.06786 7.55135C7.0354 7.65005 7.02295 7.75424 7.03125 7.85781ZM17.2344 7.03281C17.0276 7.02086 16.8246 7.0915 16.6698 7.22921C16.5151 7.36692 16.4215 7.56043 16.4094 7.76719L15.6281 21.0484C15.6214 21.2521 15.6946 21.4504 15.832 21.6009C15.9694 21.7514 16.1602 21.8423 16.3636 21.8541C16.5671 21.8659 16.7671 21.7978 16.921 21.6642C17.0749 21.5306 17.1706 21.3422 17.1875 21.1391L17.9688 7.85781C17.9807 7.65104 17.9101 7.44799 17.7724 7.29329C17.6346 7.13858 17.4411 7.04489 17.2344 7.03281ZM12.5 7.03125C12.2928 7.03125 12.0941 7.11356 11.9476 7.26007C11.8011 7.40659 11.7188 7.6053 11.7188 7.8125V21.0938C11.7188 21.301 11.8011 21.4997 11.9476 21.6462C12.0941 21.7927 12.2928 21.875 12.5 21.875C12.7072 21.875 12.9059 21.7927 13.0524 21.6462C13.1989 21.4997 13.2812 21.301 13.2812 21.0938V7.8125C13.2812 7.6053 13.1989 7.40659 13.0524 7.26007C12.9059 7.11356 12.7072 7.03125 12.5 7.03125Z"
    fill="#F26524" />
</svg>
