<svg width="50" height="16" viewBox="0 0 50 16" fill="none" xmlns="http://www.w3.org/2000/svg">
  <g id="Logo">
    <g id="Visa">
      <path id="Vector 2"
        d="M17.9477 14.9877L20.3925 0.576315H24.3014L21.8559 14.9877H17.9477ZM35.961 0.892468C34.8392 0.484149 33.6542 0.279259 32.4611 0.287339C28.6033 0.287339 25.8856 2.23952 25.8622 5.03797C25.841 7.10629 27.8028 8.25991 29.2838 8.94813C30.8037 9.65399 31.3144 10.104 31.3071 10.7341C31.2976 11.6988 30.0932 12.1392 28.9714 12.1392C27.4084 12.1392 26.5786 11.9187 25.2958 11.3841L24.7932 11.1554L24.2451 14.3774C25.1568 14.7789 26.8435 15.1274 28.5938 15.145C32.6982 15.145 35.3624 13.2156 35.3932 10.2275C35.4078 8.59004 34.3687 7.34376 32.115 6.31658C30.7503 5.65484 29.9146 5.20632 29.9234 4.53207C29.9234 3.93429 30.631 3.29464 32.1596 3.29464C33.1611 3.27211 34.1563 3.45993 35.0815 3.84609L35.4312 4.01225L35.961 0.892468ZM46.0034 0.576315H42.996C42.0644 0.576315 41.3671 0.832203 40.958 1.766L35.1773 14.9141H39.2919C39.2919 14.9141 39.9505 13.1657 40.1019 12.7819L45.0317 12.7877C45.1466 13.2848 45.5 14.9141 45.5 14.9141H49.1528L46.0034 0.576315ZM41.2215 9.84076C41.5442 9.01137 42.7772 5.81733 42.7772 5.81733C42.7538 5.85556 43.0977 4.98353 43.2945 4.44311L43.5587 5.68428C43.5587 5.68428 44.3065 9.12019 44.4624 9.84076H41.2215ZM14.6307 0.576315L10.8169 10.3694L10.4108 8.37905C9.70097 6.08499 7.48891 3.59977 5.01562 2.35569L8.50312 14.9141L12.6243 14.9097L18.757 0.576315H14.6117"
        fill="url(#paint0_linear_506_7834)" />
      <path id="Vector 1"
        d="M7.08689 0.57521H0.818064L0.767578 0.874453C5.66586 2.06633 8.90672 4.94567 10.2524 8.4044L8.8833 1.78694C8.64695 0.875935 7.96206 0.603882 7.11397 0.572266"
        fill="url(#paint1_linear_506_7834)" />
    </g>
  </g>
  <defs>
    <linearGradient id="paint0_linear_506_7834" x1="27.0842" y1="0.287109" x2="27.0842" y2="15.145"
      gradientUnits="userSpaceOnUse">
      <stop stop-color="#000066" />
    </linearGradient>
    <linearGradient id="paint1_linear_506_7834" x1="5.50998" y1="0.572266" x2="5.50998" y2="8.4044"
      gradientUnits="userSpaceOnUse">
      <stop stop-color="#000066" />
    </linearGradient>
  </defs>
</svg>