<svg width="17" height="17" viewBox="0 0 17 17" fill="none" xmlns="http://www.w3.org/2000/svg">
<path id="Vector" d="M16.1804 14.068L10.8993 8.78695L16.1804 3.50589C16.5578 3.12843 16.7051 2.57842 16.567 2.06304C16.4288 1.54766 16.0261 1.14498 15.5108 1.00683C14.9954 0.868675 14.4454 1.01602 14.0679 1.39346L8.78687 6.67453L3.5058 1.39346C3.12835 1.01601 2.57833 0.868668 2.06295 1.00683C1.54758 1.14499 1.14489 1.54767 1.00674 2.06304C0.868586 2.57841 1.01593 3.12845 1.39337 3.50589L6.67444 8.78695L1.39337 14.068C1.01592 14.4455 0.86858 14.9955 1.00674 15.5109C1.1449 16.0262 1.54758 16.4289 2.06295 16.5671C2.57832 16.7052 3.12836 16.5579 3.5058 16.1804L8.78686 10.8994L14.0679 16.1804C14.4454 16.5579 14.9954 16.7052 15.5108 16.5671C16.0262 16.4289 16.4288 16.0262 16.567 15.5109C16.7051 14.9955 16.5578 14.4455 16.1804 14.068Z" fill="#33475B"/>
</svg>
