<svg width="34" height="34" viewBox="0 0 34 34" fill="none" xmlns="http://www.w3.org/2000/svg">
<path id="Vector" d="M28.4938 5.49766C22.1585 -0.837549 11.8336 -0.837549 5.49843 5.49766C-0.836784 11.8329 -0.836783 22.1578 5.49843 28.493C11.8336 34.8282 22.1585 34.8282 28.4938 28.493C34.829 22.1578 34.829 11.8329 28.4938 5.49766ZM20.7328 22.4567L16.9961 18.72L13.2594 22.4567C12.7879 22.9281 12.0061 22.9281 11.5347 22.4567C11.0633 21.9853 11.0633 21.2035 11.5347 20.7321L15.2714 16.9953L11.5347 13.2586C11.0633 12.7872 11.0633 12.0053 11.5347 11.5339C12.0061 11.0625 12.7879 11.0625 13.2594 11.5339L16.9961 15.2707L20.7328 11.5339C21.2042 11.0625 21.9861 11.0625 22.4575 11.5339C22.9289 12.0053 22.9289 12.7872 22.4575 13.2586L18.7207 16.9953L22.4575 20.7321C22.9289 21.2035 22.9289 21.9853 22.4575 22.4567C21.9861 22.9281 21.2042 22.9281 20.7328 22.4567Z" fill="#F26524"/>
</svg>
